<?xml version="1.0" encoding="utf-8"?>
<!-- Generator: Adobe Illustrator 21.0.2, SVG Export Plug-In . SVG Version: 6.00 Build 0)  -->
<svg version="1.1" id="Layer_1" xmlns="http://www.w3.org/2000/svg" xmlns:xlink="http://www.w3.org/1999/xlink" x="0px" y="0px"
	 viewBox="0 0 200 145.4" style="enable-background:new 0 0 200 145.4;" xml:space="preserve">
<style type="text/css">
	.st0{opacity:0.2;fill:#311917;}
	.st1{fill:#E27C33;}
	.st2{fill:#CC6430;}
	.st3{fill:#7B1C07;}
	.st4{fill:#E8A235;}
	.st5{fill:#E3852A;}
	.st6{fill:#EDBB3E;}
	.st7{fill:#9D3227;}
	.st8{fill:#8F2D21;}
	.st9{fill:#D82F2B;}
	.st10{fill:#DC4535;}
	.st11{fill:#DE5E4A;}
	.st12{fill:#B13E16;}
	.st13{fill:#CF6425;}
	.st14{fill:#E27E30;}
	.st15{fill:#62733E;}
	.st16{fill:#A2BC49;}
	.st17{fill:#B6CB4B;}
	.st18{fill:#7F8D44;}
	.st19{fill:#991E0A;}
	.st20{fill:#BC312A;}
	.st21{fill:#C62424;}
	.st22{fill:#4F5E3C;}
	.st23{fill:#ED4726;}
	.st24{fill:#E27B52;}
	.st25{fill:#6F8948;}
	.st26{fill:#911F0C;}
	.st27{fill:#B21B1B;}
	.st28{fill:#CE3024;}
	.st29{fill:#ED4120;}
	.st30{fill:#F2D050;}
	.st31{fill:#A07D35;}
	.st32{fill:#DCCA8F;}
	.st33{fill:#D3BC74;}
	.st34{fill:#E9DEB8;}
</style>
<g>
	<path class="st0" d="M182.8,118.2c0.4-0.6,0.7-1.2,0.9-1.8c3.5-10.2-15.3-14.9-25.1-16.3c-16.6-2.3-33.5,0.6-49.9,2.5
		c-17.2,2-34.2,4.9-51,8.5c-9.2,2-25.8,4.1-33.8,10.3c-0.7-0.6-1.4-1.1-2.3-1.5c-1.3-0.5-2.6-0.7-3.9-0.8c0.2-0.3,0.6-0.6,0.9-0.7
		c0.5-0.2,1.1-0.2,1.6-0.2c-2.1-0.9-4.5-1.2-6.8-0.9c-0.9,0.1-1.7,0.4-2.5,0.8c-1.2,0.5-1.2,0.5-2.6,0.1c-0.3,0.4-0.4,0.9-0.3,1.4
		c0.7,0.2,1.5,0.4,1.8,1.1c0.3,0.8-0.2,1.6-0.3,2.4c-0.1,1.1,0.6,2.1,1.6,2.7c0.9,0.5,2.1,0.7,3.2,0.7c-0.4-0.4-0.8-0.8-1.1-1.3
		c-0.1-0.1-0.1-0.3-0.1-0.4c0.8,0.3,1.6,0.5,2.5,0.7c1.5,0.2,3.1,0.4,4.6,0.7c0,0.1,0,0.1-0.1,0.2c-2.2,5.4,1.4,10.1,8.3,12
		c26.2,7.3,53.8,4.3,80.9,3c17.2-0.8,35-2.9,50.4-8.7c6.1,2.9,14.2,2.7,20.3,2.2C193.3,133.7,190.2,123.6,182.8,118.2z"/>
	<g>
		<path class="st1" d="M58.7,70.6c-0.6-0.5-0.1-1.6,0-2.3c0.1-1.2,1.6-1.7,2.8-1.7c7-0.5,13.8,2.1,20.3,4.8c5.6,2.4,11.3,4.9,16,8.8
			c1.5,1.2,2.8,2.5,3.9,4.1c2.5,3.5-1.6,5.5-4.8,5.4c-2.7,0-5.3-2-7.8-2.8c-7-2.2-12.7-5.3-18.9-9.3C66.7,75.3,62.8,73.8,58.7,70.6z
			"/>
		<path class="st2" d="M77.7,79.3c1.3,0.6,2.7,1.2,4.1,1.7c1,0.3,2.2,0.6,3,1.3c0.9,0.7,1.4,2,0.8,2.9c-2-0.8-3.8-1.8-5.7-2.8
			c-1.4-0.8-2.9-1.6-4.3-2.3c-3.4-1.9-7.5-3.5-10.5-6C65.8,73.2,76.2,78.6,77.7,79.3z"/>
		<path class="st3" d="M65.8,73.5c7.2,3.1,15.4,4.4,21.6,9.3c0.6-1.2,0.1-2.6-0.8-3.6c-0.9-0.9-2.1-1.5-3.3-2
			c-4.3-1.8-8.6-3.6-12.9-5.4c-1.7-0.7-4.5-2.1-6.4-1.6C61.7,71,64.6,73,65.8,73.5z"/>
		<path class="st4" d="M34.5,93.6c3.5-0.6,7-1.3,10.6-1.4c3.6-0.2,7.2,0.2,10.8,0c4.6-0.3,10.6,3.3,15.1,2.5
			c8.5-1.6,15.8-6.8,24.4-7.1c-2.2-1.7-4.4-3.6-6.5-5.3c-1.4-1.1-2.8-2.2-4.4-3.1c-3.7-2-8.1-2.6-12-4.4c-2.2-1-4.2-2.5-6.6-3.2
			c-0.9-0.3-1.9-0.5-2.7-1c-0.8-0.5-1.5-1.5-1.2-2.5c15.2-7.9,30.7-16.3,47.5-20c16.8-3.7,35.3-2.6,49.7,6.6c4.2,2.7,8,6.1,10,10.6
			c2.5,5.7,1.7,12.5-1,18.1c-2.7,5.6-7.1,10.2-11.7,14.4c-11.7,10.5-25.6,18.8-40.5,23.7c-16.7,5.5-34.6,6.1-52.1,8.1
			c-8,0.9-16.4,1.5-23.6-1.9c-6.2-3-10.9-9-12.3-15.8C26.6,105.1,29.9,98.8,34.5,93.6z"/>
		<path class="st5" d="M120.3,109.4c-2.3,0.8-4.6,1.6-6.8,2.7c-2.3,1.1-4.4,2.5-6.7,3.5c-4,1.9-8.5,2.7-12.8,3.5
			c-13.5,2.5-27.1,5.1-40.8,4.7c-7-0.2-14.7-1.7-18.8-7.3c-4.4-6.1-3.2-16.2,0.1-22.9l-0.7,0.8c-4.2,5-7.1,11.1-5.8,17.5
			c1.4,6.8,6.1,12.8,12.3,15.8c7.2,3.5,15.7,2.8,23.6,1.9c17.5-2,35.4-2.6,52.1-8.1c8.9-2.9,17.3-7,25.2-12c0.1-2.8-0.6-5.6-2.1-8
			C133.1,104.7,126.7,107.1,120.3,109.4z"/>
		<path class="st3" d="M162.5,61.4c4.7,3.8,5.6,11,3.4,16.6c-2.2,5.6-6.7,10-11.4,13.9c-28.4,23.7-65.9,35.8-102.8,34.4
			c-4-0.2-8-1.2-11.7-2.6c-3.7-1.4-7.2-3.9-9-7.4c-3.6-6.9-0.2-15.2,3.3-22.2c-7.4,3.2-11.7,12.4-9.4,20.2
			c1.7,5.7,6.3,10.1,11.7,12.7s11.3,3.4,17.2,3.7c22.5,1.2,44.9-5,65.9-13.2c9.9-3.8,19.6-8.2,28.4-14.2c8.7-6,16.4-13.9,20.9-23.4
			c1.8-3.7,3.1-8,2.1-12C170,63.7,166.5,60.5,162.5,61.4z"/>
		<path class="st6" d="M165.2,68.4c-0.3-0.9-1.2-1.7-2.2-1.6c-1.4,0.1-2,1.7-2.5,3c-2.9,8.1-10.3,14.4-18.8,15.8
			c-3.5,0.6-7.9,0-9.5-3.2c-1-2-0.6-4.5,0.5-6.4c1.2-1.9,3-3.3,4.9-4.5c5.8-3.6,12.6-5.6,19.4-5.6c1.5,0,3.2-0.1,3.9-1.4
			c0.5-1,0-2.3-0.8-3c-0.9-0.7-2-0.9-3.2-1c-3.5-0.2-7,0.8-9.8,2.8c-1.8,1.2-3.8,3-5.8,2c-1.7-0.8-1.8-3.4-0.6-4.8s3.4-1.7,5.2-1.3
			c1.8,0.4,4.2,1.3,5.2-0.3c3.4-5.3-12.6-6.3-15-6.4c-3.7-0.1-7.4-0.2-11.1-0.1c-12.8,0.4-25.3,2.6-37.1,7.9
			c-4.3,1.9-8.3,4.4-11.7,7.5c-0.6,0.6-1.2,1.1-1.7,1.7c-0.5,0.5-0.9,1.1-0.9,1.7c0,1.2,1.9,1.6,2.7,1.9c1.5,0.7,3.1,1.2,4.6,2
			c-1.7-1-2.1-3.3-1.4-5.2c0.7-1.8,2.2-3.2,3.7-4.4c5.2-4.1,11.3-7.1,17.8-8.2c2.4-0.4,5.3-0.3,6.5,1.8c1.1,1.9,0.1,4.2-1,6
			c-3.3,5.1-8.6,8.8-14.5,10.2c2.1,2.6,5.3,4.1,8.6,4.7c3.3,0.6,6.6,0.5,10,0.6c0.7,0,1.4,0,2.1,0.3c0.7,0.3,1.2,0.9,1.2,1.6
			c0,0.7-0.5,1.3-0.9,1.8c-1.5,1.7-3,3.5-5.1,4.4c-2.2,1.1-4.8,1-7.3,1c-1.8,0-3.6,0-5.4-0.1c5.7,1.5,11.8,1.6,17.7,1.6
			c-3.9,0.5-7.9,1.1-11.7,2.4c-3.8,1.3-7.3,3.5-9.7,6.7c6-3.3,12.2-6.6,18.9-7.7c1.4-0.2,2.9-0.4,4.4-0.1c1.4,0.3,2.8,1.2,3.4,2.5
			c1.2,2.4-0.4,5.3-2.3,7.2c-5.4,5.6-13,8.4-20.4,10.8c-0.7,0-1.2,0.9-0.8,1.5c0.4,0.6,1.2,0.7,1.9,0.8c7.9,0.9,15.9-0.4,23.3-3.4
			c7.3-3,13.9-7.8,19.3-13.5c0.8-0.8,1.6-2.1,0.9-3c-0.6-0.8-1.9-0.6-2.8-0.2c-1.1,0.5-2,1.2-3.1,1.7c-1.1,0.5-2.2,0.8-3.4,0.6
			c-1.1-0.2-2.2-1.2-2.3-2.3c-0.1-1.3,1-2.4,2.1-3c1.3-0.8,2.7-1.4,4.1-1.7c1.2-0.3,2.7-0.2,3.5,0.8c0.3,0.4,0.4,0.8,0.7,1.2
			c0.5,0.7,1.6,0.9,2.4,0.8c0.9-0.2,1.7-0.6,2.5-1.1c4.5-2.7,9.2-4.7,13.1-8.1c3.9-3.4,7.2-7.9,8.3-13
			C165.5,70.4,165.6,69.4,165.2,68.4z M111.8,77c-1.9-0.5-3.7-1.6-4.5-3.3c-1-2.1-0.3-4.7,1.2-6.5c1.5-1.8,3.6-3,5.6-4.1
			c4.6-2.4,9.3-4.6,14.3-5.8c1.6-0.4,3.2-0.6,4.8-0.3c2.7,0.6,4.2,2.5,3.6,5.2c-0.6,2.6-2.1,4.9-4,6.8c-2.4,2.4-5.5,4.1-8.6,5.6
			C120.4,76.5,116,78.1,111.8,77z M130.8,86.4c-0.4,0.4-0.9,0.7-1.3,1.1c-1,1-1.5,2.4-2.6,3.2c-0.7,0.5-1.5,0.7-2.3,0.9
			c-1.3,0.2-2.6,0.3-3.9,0.3c-0.8,0-2-0.1-2.4-1c-0.1-0.1-0.1-0.2-0.2-0.3c-0.1-0.1-0.2-0.1-0.3-0.1c-0.8-0.3-1.8-0.3-2.4-0.9
			c-0.4-0.4-0.5-0.9-0.6-1.5c0-0.3-0.1-0.6,0-0.9c0.1-0.5,0.5-0.9,1-1.3c0.9-0.7,2-1.1,3.1-1.5c3.5-1.3,7.3-2.1,10.8-1
			c0.8,0.2,1.6,0.7,1.7,1.5C131.5,85.5,131.2,86,130.8,86.4z"/>
		<path class="st5" d="M159.3,54.8c-14.5-9.2-33-10.3-49.7-6.6c-16.8,3.7-32.2,12.1-47.5,20c-0.3,0.9,0.4,1.9,1.2,2.5
			c0.8,0.5,1.8,0.7,2.7,1c2.3,0.7,4.4,2.2,6.6,3.2c3.8,1.8,8.2,2.3,12,4.4c1.6,0.9,3,2,4.4,3.1c1.5,1.2,3,2.4,4.5,3.7l2.1,0.4
			c-7.9-6.7-17-12.1-26.7-15.7c18.4-13,41.1-19.9,63.6-19.3c8,0.2,16.2,1.4,23.3,5.2c7.1,3.8,13,10.5,14.1,18.5
			c0.1,0.7,0.3,1.4,0.5,2c0.8-3.9,0.5-8-1.1-11.7C167.3,60.9,163.4,57.4,159.3,54.8z"/>
		<path class="st7" d="M169.3,65.4c-2-4.5-5.9-7.9-10-10.6c-14.5-9.2-33-10.3-49.7-6.6c-16.8,3.7-32.2,12.1-47.5,20
			c-0.3,0.9,0.4,1.9,1.2,2.5c0.8,0.5,1.8,0.7,2.7,1c0.2,0,0.3,0.1,0.5,0.2c0.6-1,0.8-2.3,1.8-3c0.5-0.3,1.2-0.4,1.8-0.7
			c1.5-0.6,2.4-2.1,3.8-2.8c1.3-0.6,2.9-0.5,4.1-1.3c1.1-0.7,1.6-1.5,2.9-1.9c1.3-0.4,2.8-0.5,4-1.2c0.7-0.4,1.3-1.1,2-1.5
			c1.3-0.7,2.8-0.7,4.2-1.1c1.4-0.5,2.5-1.4,3.9-1.8c1.6-0.4,3.4-0.1,4.9-0.6c0.9-0.3,1.7-0.9,2.5-1.3c1.2-0.6,2.5-0.9,3.8-1.2
			c5.8-1.3,11.5-2,17.4-2.4c1.8-0.1,3.6-0.2,5.4-0.2c0.9,0,1.8,0.1,2.7,0c1.6-0.1,3.5-0.7,4.8,0.3c1.2,0.8,2.1,0.3,3.5,0.3
			c1.5,0,3,1,4.5,1c0.7,0,1.5-0.2,2.2,0.1c0.4,0.1,0.8,0.4,1.2,0.7c0.7,0.4,1.5,0.5,2.2,0.8c1.8,0.6,3.5,1.6,5.1,2.6
			c1.2,0.8,2.2,1.7,3.2,2.6c0.7,0.6,1.9,1.2,2.3,2.2c0.1,0.3,0.1,0.7,0.2,1c0.5,1.2,2.4,1.3,2.6,2.5c0.1,0.5-0.1,1.1,0,1.6
			c0.2,1.3,2.1,1.6,2.6,2.7c0.3,0.5,0.2,1.2,0.1,1.8c-0.2,1.5-0.4,2.9-0.6,4.4c0,0.2-0.1,0.4-0.2,0.6c-0.1,0.2-0.3,0.3-0.5,0.4
			c-1.3,0.9-1.9,2.6-1.6,4.2c-1.2,0.4-0.8,2.3-1.6,3.3c-0.6,0.7-1.6,0.9-2.4,1.3c-1.7,1-2.4,3.2-3.9,4.5c-1.2,1-2.8,1.4-3.9,2.5
			c-0.8,0.8-1.3,1.9-2.2,2.6c-1.2,1-3,1-4.3,1.9c-1.3,0.8-2.1,2.4-3.4,3.2c-0.6,0.3-1.3,0.5-1.9,0.7c-2.8,1-4.7,3.5-7.4,4.9
			c-1.3,0.7-2.8,1-4.2,1.5c-4.2,1.6-7.1,5.2-11.7,6c-1.5,0.3-3.1,0.3-4.5,0.8c-2.2,0.8-3.8,2.7-6,3.4c-1.7,0.6-3.6,0.4-5.4,0.8
			c-2.4,0.6-4.4,2.2-6.7,2.9c-2.1,0.7-4.4,0.5-6.6,0.6c-1.9,0.1-3.7,0.4-5.5,0.9c-1.6,0.4-3.1,1.4-4.6,1.7c-1.8,0.4-4.1,0.1-6,0.1
			c-2.1,0-4.2,0.1-6.3,0.1c-6,0.1-12.1,0.3-18.1-0.5c-4.3-0.6-8.8-1.7-11.9-4.8c-3.1-3.1-4.3-7.7-4.1-12.1c0.2-4.4,1.6-8.6,3.2-12.7
			c0,0-0.1,0-0.1,0c-4.3,5.1-7.2,11.1-5.9,17.6c1.4,6.8,6.1,12.8,12.3,15.8c7.2,3.5,15.7,2.8,23.6,1.9c17.5-2,35.4-2.6,52.1-8.1
			c15-4.9,28.8-13.2,40.5-23.7c4.6-4.2,9-8.8,11.7-14.4C171,77.8,171.8,71.1,169.3,65.4z"/>
		<path class="st3" d="M169.3,65.4c-2-4.5-5.9-7.9-10-10.6c-14.5-9.2-33-10.3-49.7-6.6c-16.8,3.7-32.2,12.1-47.5,20
			c-0.3,0.9,0.4,1.9,1.2,2.5c0.4,0.2,0.7,0.4,1.1,0.5c18.8-13.7,42-21.2,65.2-20.9c9.1,0.1,18.5,1.4,26.4,6c3.4,2,6.4,4.6,8.8,7.7
			c2.6,3.2,4.5,7,5,11.1c0.1,0.7,0.3,1.4,0.5,2C171.1,73.1,170.9,69,169.3,65.4z"/>
		<g>
			<path class="st5" d="M83.9,67.1c2.6-2.1,5.9-2.6,7.6-3.4c3.2-1.4,15.2-8.1,14.6-0.8c-0.1,1.1-1.6,3.8-2.3,4.6
				c-3,3.3-6.6,5.7-10.8,7.1c-2.6,0.8-9.7,3-11.6-0.1C80,72.2,81.6,69,83.9,67.1z"/>
			<path class="st8" d="M84,66.1c2.6-2.1,6.2-3.7,7.9-4.4c2.9-1.3,6-2.6,9.2-2.9c1.4-0.1,3.1-0.2,4.1,0.8c3.2,3.1-1.2,7.4-3.5,9.1
				c-3.2,2.4-7.5,4.2-11.4,5.1c-2.4,0.6-7,1.3-8.7-1.4C80.4,70.2,81.8,68,84,66.1z"/>
			<path class="st9" d="M84,66.2c2.5-2,6-3.5,7.7-4.3c2.8-1.2,5.9-2.4,8.9-2.8c1.3-0.2,3-0.2,4.1,0.6c2.1,1.6,0.6,4.4-0.8,5.9
				c-2.8,2.9-6.7,5-10.5,6.3c-2.5,0.8-9.5,3-11.4,0.2C80.5,70,81.8,67.9,84,66.2z"/>
			<path class="st10" d="M101.9,62.3c1.1,0.1,2.2,0.4,3.2,0.8c0.2-0.5,0.4-1,0.3-1.6c-0.1-0.6-0.3-1.1-0.9-1.5
				c-0.6-0.4-1.3-0.6-2.4-0.6c-0.5,0-1,0.1-1.4,0.1c-3.1,0.4-6,1.5-8.8,2.7c-0.7,0.3-1.7,0.8-2.9,1.3C93,62.1,97.7,61.8,101.9,62.3z
				"/>
			<g>
				
					<ellipse transform="matrix(0.9188 -0.3947 0.3947 0.9188 -19.7417 39.3225)" class="st11" cx="85.7" cy="67.6" rx="1.7" ry="0.7"/>
				
					<ellipse transform="matrix(0.9188 -0.3947 0.3947 0.9188 -18.7561 42.6078)" class="st11" cx="94.2" cy="66.9" rx="1.7" ry="0.7"/>
				
					<ellipse transform="matrix(0.9188 -0.3947 0.3947 0.9188 -18.7723 41.0957)" class="st11" cx="90.5" cy="66.2" rx="1" ry="0.4"/>
				
					<ellipse transform="matrix(0.9188 -0.3947 0.3947 0.9188 -20.4135 41.0804)" class="st11" cx="89.6" cy="70.2" rx="1" ry="0.4"/>
				
					<ellipse transform="matrix(0.9188 -0.3947 0.3947 0.9188 -16.9088 42.7813)" class="st11" cx="95.5" cy="62.5" rx="0.6" ry="0.3"/>
				
					<ellipse transform="matrix(0.9188 -0.3947 0.3947 0.9188 -17.7863 44.8486)" class="st11" cx="100.1" cy="65.7" rx="0.6" ry="0.3"/>
				
					<ellipse transform="matrix(0.9188 -0.3947 0.3947 0.9188 -16.0455 45.8743)" class="st11" cx="103.5" cy="61.9" rx="1" ry="0.4"/>
				
					<ellipse transform="matrix(0.9188 -0.3947 0.3947 0.9188 -21.4048 39.0012)" class="st11" cx="84.1" cy="71.5" rx="1" ry="0.4"/>
				
					<ellipse transform="matrix(0.9188 -0.3947 0.3947 0.9188 -15.9758 44.0466)" class="st11" cx="99.1" cy="60.9" rx="1" ry="0.4"/>
				
					<ellipse transform="matrix(0.9188 -0.3947 0.3947 0.9188 -17.2948 43.7822)" class="st11" cx="97.8" cy="63.9" rx="1" ry="0.4"/>
			</g>
		</g>
		<path class="st12" d="M57.1,65.6c4.8-4.4,31.3-18.6,61.5-21.5c30.2-2.9,49.3,6.5,55,16.7c5.7,10.2,4.1,40.4-50.1,61.6
			c-54.2,21.2-94.2,13.9-100.7-1.6c-6.5-15.5,2.9-26.5,8.2-31.4c1.5-1.4,6.9,0.8,5.3,3.7c-0.9,1.5-2.9,4.1-4.1,6.5
			c-1.6,3.1-6.5,12.2,0,20c6.5,7.7,31.8,11,68.9,1.2s66-33.8,66.9-48.5c0.8-14.7-18.3-22-39.1-22.8c-21.2-0.8-50.6,9.8-65.6,20.8
			L57.1,65.6z"/>
		<path class="st13" d="M128.8,49.4c20.8,0.8,40,8.2,39.1,22.8c-0.8,14.7-29.8,38.7-66.9,48.5s-62.4,6.5-68.9-1.2
			c-2.6-3.1-3.4-6.3-3.3-9.4c-0.6-4.7,2.4-9.5,3.6-14.2c0.3-1,0.4-2,0.1-3c-0.3-1-1.3-1.8-2.3-1.6c-0.6,0.1-1,0.5-1.4,0.9
			c-5.1,4.7-8.2,11.5-7.9,18.4c0.2,6.9,4,13.6,9.9,17.2c3.4,2.1,7.4,3,11.3,3.7c23.3,4.1,47.2,0,70-5.9c9.5-2.5,18.3-6.8,26.6-11.9
			c4-2.4,7.7-5.2,11.5-7.8c7.1-4.8,14-10.1,19.1-17c4.6-6.3,5.9-13.4,6.3-20.8c-0.3-2.9-1.1-5.4-2.1-7.2
			c-5.7-10.2-24.9-19.6-55-16.7C88.5,46.9,62,61.2,57.1,65.6l6,4.6C78.3,59.2,107.6,48.5,128.8,49.4z"/>
		<path class="st12" d="M62.7,70.7c15.1-11.3,44.6-21.8,65.9-20.9c16.9,0.7,32.7,5.3,37.7,15.2c-0.4-1-1-1.9-1.7-2.8
			c-2.9-3.8-6.9-6.6-11.2-8.7c-13.2-6.7-28.8-7.2-43.3-4.2c-14.5,2.9-28.1,9.1-41.5,15.3c-1.8,0.8-3.7,1.7-5.7,1.9
			c-1.8,0.1-3.7-0.4-4.8-1.7c-0.6,0.5-1.1,0.9-1.5,1.2L62.7,70.7z"/>
		<path class="st14" d="M62.1,63c13.7-7.5,28.3-13.7,43.7-16.8c15.3-3.2,31.5-3.3,46.5,1.1c4.9,1.4,9.7,3.3,13.8,6.4
			c4.1,3.1,7.4,7.4,8.5,12.3c1.2,5.2-0.1,10.7-2.7,15.3c-2.5,4.6-6.3,8.5-10.2,12.1c-14.9,13.6-33.3,22.1-52,29.2
			c-13.1,4.9-26.9,8.4-41,7.9c-4.2-0.2-8.5-0.7-12.7-1.2c-7.4-0.9-14.8-1.9-21.6-5c-2.4-1.1-4.7-2.5-6.6-4.4c-4-4-5.6-10-4.8-15.6
			c0.3-1.9,0.9-3.8,1.7-5.6c0.4-0.9,0.9-2.1,1.5-2.8c0.9-1.1,0.9-0.9,2.2-0.2c2.2,1.1,1.1,4.4,0.4,6.8c-1.8,6-1.7,13.1,2.6,17.7
			c2.6,2.8,6.3,4.2,10,5.2c11.8,3.1,24.3,2.4,36.4,1c8.5-1,17-2.4,25.1-5c5.4-1.8,10.5-4.1,15.6-6.4c6.4-2.9,12.8-5.7,19.1-8.6
			c5.7-2.7,10.7-6.9,15.5-11c3.8-3.2,7.5-6.6,10.4-10.6c2.8-3.9,5.2-8.9,6.2-13.7c1.7-9-4.6-14.5-11.7-18.4
			c-5.2-2.9-10.9-4.7-16.8-5.3c-13.3-1.5-27.6-0.3-40.7,2.7C88,52.6,75.8,57.2,64.2,62.9c-0.8,0.4-1.7,1.1-1.3,1.9
			C62.5,64.3,62.4,63.5,62.1,63z"/>
		<path class="st12" d="M23.2,12.7C24,11.5,27.7,9,31,7.6c9.4-4.1,19.9-5.8,30.1-4.8c1.2,0.1,2.6,0.3,3.4,1.2
			C65.2,4.8,65.3,6,65.1,7c-0.2,1-0.7,1.9-1.2,2.8c-11.1-0.3-22.3,3.1-31.3,9.6c-0.4,0.3-0.7,0.5-1.2,0.5c-0.4,0-0.8-0.2-1.2-0.5
			C27.8,17.8,25.7,14.3,23.2,12.7z"/>
		<path class="st13" d="M63.6,4.4c-0.7-0.8-1.9-1.1-2.9-1.4c-0.5-0.1-1-0.2-1.5-0.3C49.6,2,39.8,3.8,31,7.6
			c-1.8,0.8-3.6,1.8-5.1,2.8c1.6-0.4,3.4,0,4.7,1.1c0.5,0.4,0.9,0.9,1.4,1.2c2.6,1.6,6.6-1.6,9-2.3c3.8-1.2,7.8-1.9,11.7-2.6
			c3.7-0.7,7.7-1.3,11.3,0C64.6,6.7,64.4,5.3,63.6,4.4z"/>
		<path class="st3" d="M35.3,14.4c1.7-0.9,3.3-1.8,5-2.7c1.4-0.8,2.8-1.5,4.3-1.9c1.1-0.3,2.2-0.4,3.3-0.5c4.2-0.4,8.4-0.8,12.6-1.2
			c1.1-0.1,2.3-0.2,3.1,0.6c0.2,0.2,0.4,0.5,0.4,0.8c-0.1,0.7-1.1,0.9-1.8,0.8C54.1,9.6,46.4,13,39,16.4c-1.5,0.7-4.9,4.4-6.3,3
			C30.7,17.5,34.1,15.1,35.3,14.4z"/>
		<path class="st7" d="M37.8,13.7c0.8-0.4,1.6-0.6,2.4-1c0.7-0.4,1.4-0.9,2.1-1.2c0.7-0.4,1.5-0.6,2.3-0.8c0.9-0.3,1.7-0.5,2.6-0.8
			c0.7-0.2,1.4-0.4,2.2-0.4c0.6,0,1.1,0.1,1.7,0.1c1.2,0,2.3-0.6,3.4-0.8c0.2,0,0.4-0.1,0.7,0c0.2,0,0.4,0.1,0.6,0.2
			c0.8,0.3,1.8-0.1,2.6-0.2c1.4-0.2,2.9,0.1,4.3,0.4c0.2,0,0.4,0.1,0.6,0.2c0.6,0.4,0.7,1.3,0.3,1.9c-0.3,0.6-1,1-1.6,1.3
			c-1.7,1-3.5,1.8-5.3,2.4c-5.7,2-11.8,2-17.6,3.8c-1.8,0.5-4.6,1.7-5.4-0.8C33,15.7,36.3,14.3,37.8,13.7z"/>
		<path class="st1" d="M31,13.4c1.2,1.6,1,3,1.2,4.7c0.2,1.4,1.7,2,3,2.2c1.3,0.2,2.7,0.1,3.9,0.6c1.7,0.7,2.8,2.5,4.3,3.5
			c2.5,1.8,5.9,1.5,9,2c4,0.7,7.5,2.7,11.3,4c3.5,1.1,7.1,1.5,10.7,2c3.6,0.4,7.1,0.8,10.6,1.6c0.5,0.1,1,0.2,1.4,0.6
			c0.4,0.3,0.6,0.9,0.4,1.3c-0.3,0.7-1.2,0.7-1.9,0.7C78,36.1,71,35.4,64,34.1c-7.6-1.5-15.1-3.5-22.3-6.1
			c-3.6-1.3-7.2-2.8-10.8-4.3c-2.9-1.3-7.2-2.4-8.4-5.5c-0.5-1.2-0.7-2.6-0.3-3.9c0.6-1.7,2.3-2.9,4.1-3.1
			C28.1,11,29.9,11.9,31,13.4z"/>
		<path class="st2" d="M23.1,14.5c0.2-0.5,0.4-0.9,0.8-1.3c0.4-0.4,1-0.6,1.5-0.8c1.1-0.4,2.4-0.7,3.3,0c0.4,0.3,0.6,0.7,0.8,1.1
			c0.7,1.2,1.4,2.5,1.4,3.9c0,0.5-0.1,1,0.1,1.5c0.1,0.3,0.4,0.5,0.6,0.8c0.2,0.3,0.3,0.7,0.1,0.9c-0.1,0.2-0.4,0.3-0.6,0.3
			c-1.4,0.3-2.9,0.4-4.2-0.1c-0.8-0.3-1.5-0.8-2.1-1.3C22.9,18.3,22.1,16.7,23.1,14.5z"/>
		<path class="st5" d="M64,9.8c2.9,5.7,6.1,10.2,11,14.7s11.5,9.4,11.6,10.4c0.2,1-15.3-1.8-30.4-5.5C41.2,25.7,31,19.2,31,19.2
			s7.4-7.1,16.8-9.2C57.2,8,64,9.8,64,9.8z"/>
		<path class="st4" d="M66.1,87.6c0.1-0.1,0.2-0.1,0.2-0.2c1-0.6,2.3-0.5,3.1,0.3c0.4,0.4,0.7,0.9,0.8,1.5c0.6,2,0,4.5-1.8,5.6
			c1.7,0.2,3.7-0.3,5.4-0.5c0.7-0.1,5.4-1.3,5.8-0.9c-1.3-1.4-2.7-2.7-4-4.1c-3.3-3.6-6.2-7.7-8.4-12c-1.9-3.8-3.4-7.9-3.8-12.1
			c-0.4-4.2,0.4-8.6,2.6-12.3c1.3-2,3.2-3.9,5.6-4c2.2-0.1,4.1,1.3,5.6,3c3.1,3.3,4.9,7.6,5.9,12c0.9,4.4,1,9,1,13.5
			c-0.1,5.1-0.4,10.2-0.9,15.3c4.8-1,9.6-2.4,14.2-4.3c-9.8-13.8-12.7-31.4-10.2-48.1c0.3-1.8,1.2-4.1,0.4-5.7
			c-0.8-1.6-4.6-2.1-6.2-2.8c-9-4.1-18.1-8.2-27.7-11c-4.8-1.4-9.7-2.5-14.6-3c-2.9-0.3-6.5-1.1-9.2,0.6c-4.1,2.6-5.4,7.9-5.4,12.4
			c-0.2,11,4.2,21.5,7.8,31.9C35.9,73.2,38,84.4,35,95c5.6,0.2,11.3,0.4,16.9,0.4c5,0,11.9,1.1,16.6-0.6c-1.9-0.4-3.8-2.6-3.7-4.5
			C64.8,89.2,65.2,88.2,66.1,87.6z M79.8,39.8c1.6,0.9,2.7,2.5,3.4,4.2c0.7,1.7,0.9,3.6,1.2,5.4c0.3,1.9,0.5,3.8,0.8,5.7
			c0.1,0.7,0,1.7-0.7,1.7c-0.6,0.1-0.9-0.7-1.1-1.3c-0.8-3.3-2.9-6.3-5.7-8.3c-1-0.7-2.1-1.3-3-2.1c-0.7-0.6-1.3-1.2-1.7-2
			C70.8,38.6,77.1,38.3,79.8,39.8z M58.3,36.7c1.3-0.7,2.9-0.5,4.1,0.4c1.2,0.8,1.9,2.2,2.3,3.6c0.6,2.8-0.8,6-4,6.1
			c-2.5,0.1-3.9-2.9-4.3-5C56,39.9,56.6,37.6,58.3,36.7z M43.2,34.7c1.4-3.2,5-2.1,6.9-0.1c2.2,2.4,0.5,5.7-2.3,6.8
			c-3.2,1.2-5.1-1.4-5.1-4.3C42.7,36.3,42.8,35.5,43.2,34.7z M37.3,64c-3.4-9.1-6.3-18.5-7-28.2c-0.1-1.4-0.2-3,0.5-4.3
			c0.6-1.3,2.1-2.3,3.5-2c1.1,0.3,1.9,1.4,2.4,2.5c1.5,2.9,2.2,6.1,2.8,9.3c1.2,6.2,2.1,12.5,2.6,18.9c0.2,1.9,1,5.9-0.8,7.4
			C39.3,69.4,37.9,65.4,37.3,64z M48.4,88.1c-0.2,0.9-0.6,1.8-1.3,2.4c-2.4,2.3-4.9-0.5-5.6-2.8c-0.7-2.5-0.8-5.2-0.3-7.7
			c0.3-1.4,0.9-2.9,2.3-3.4c1-0.4,2.3,0,3.1,0.8c0.8,0.7,1.3,1.8,1.6,2.8C49,82.7,49.1,85.5,48.4,88.1z M59.9,86.4
			c-3.4,4.6-7.1-4.2-8.1-6.5c-1.9-4.6-3-9.4-4-14.2c-1-4.5-1.9-9-2.2-13.6c-0.1-1.1-0.1-2.2,0.3-3.2c0.4-1,1.2-1.9,2.2-2.2
			c1.1-0.2,2.2,0.4,3,1.2c0.7,0.9,1.1,2,1.4,3.1c1.9,6.8,1.8,14.1,4.3,20.7c1.3,3.5,3.4,6.8,3.9,10.6C60.9,83.7,60.8,85.2,59.9,86.4
			z"/>
		<path class="st4" d="M75.8,88.4c0.8,0.7,1.7,1.3,2.8,1.4c1.3,0.1,2.6-0.8,3.3-1.9c0.7-1.1,1-2.5,1.3-3.8c0.4-1.6,0.7-3.3,1.1-4.9
			c0.9,1.4,1,3.2,1.1,4.8c0.1,2.4,0.1,5-1.4,6.9c-0.5,0.6-1.1,1.2-1.8,1.7c-0.8,0.6-1.6,1.2-2.5,1.3c-1.3,0.2-2.6-0.6-3.4-1.6
			c-0.8-1-1.3-2.3-1.9-3.5c-0.4-0.9-2-2.6-2.2-3.5C74.4,87.3,74.9,87.7,75.8,88.4z"/>
		<path class="st6" d="M38.9,87.1c-0.7,2.9-1.4,5.8-2.4,8.7c-1.7,4.5-4.3,9.1-3.3,13.8c0.8,3.6,3.7,6.4,6.9,8.2
			c4.3,2.5,9.4,3.6,14.3,3.9c5,0.3,10-0.1,15-0.6c7.3-0.7,14.7-1.3,21.6-3.7c0.6-0.2,1.3-0.5,1.6-1.1c0.4-0.7,0.1-1.5-0.4-2.1
			s-1.1-1-1.7-1.6c-1.4-1.4-1.9-3.6-1.3-5.5c0.5-1.4,1.5-3,0.7-4.2c-0.6-0.9-2-1-3.1-0.8c-1.1,0.1-2.4,0.4-3.3-0.3
			c-0.9-0.6-1.2-1.9-0.8-3c0.3-1.1,1.1-1.9,2-2.5c1.5-1.1,3.4-1.9,5.2-1.7c0.5,0,1,0.2,1.3,0.5c0.2,0.3,0.4,0.6,0.7,0.8
			c0.3,0.2,0.7,0.1,1.1,0c2.4-0.7,4.6-1.9,6.6-3.5c-3.1-1-6.3-1.9-9.3-3.1c-2.1-0.8-4.5-1.1-5.9,1.1c-0.3,0.5-0.5,1-0.9,1.4
			c-0.9,1.2-2.5,1.7-4,1.6c-1.5-0.2-2.9-1-4-2c0.2,0.9-0.9,1.7-1.7,1.2c-0.4-0.3-0.7-0.8-1.2-0.9c-0.7-0.1-1,0.9-1.2,1.6
			c-0.6,1.7-2.5,2.7-4.2,2.6c-1.8-0.1-3.4-1.2-4.5-2.5c-1.9,1.3-2.7,1.5-5,1.1c-1.7-0.3-3.5-0.9-4.8-2c-1-0.8-2.2-2-3.4-1.4
			c-0.7,0.4-1,1.3-1.5,2c-1.3,1.9-4.5,1.8-5.7-0.2c-0.8-1.3-1.1-3.1-1.6-4.5C40.3,87.7,39.5,84.9,38.9,87.1z"/>
		<path class="st8" d="M96.2,88.4c-2.5-0.9-4.6-2.5-5.9-4.8c-0.5-1-0.9-2.2-0.8-3.4c0.1-1.2,0.6-2.3,1.6-3c1.1-0.7,2.6-0.6,3.9-0.2
			c1.3,0.4,2.4,1.2,3.6,1.8c2.5,1.3,5.2,1.8,8,1.7c1-0.1,2.1-0.2,3.1-0.1c1,0.2,2.1,0.7,2.5,1.7c0.6,1.4-0.4,2.9-1.4,3.8
			C106.9,89.5,100.9,90.1,96.2,88.4z"/>
		<g>
			<path class="st5" d="M133,93.8c-1.7,0.7-2.8,1.8-2.5,2.5c0.3,0.7,1.9,0.6,3.5-0.1c1.7-0.7,2.8-1.8,2.5-2.5
				C136.2,93.1,134.6,93.1,133,93.8z M133.7,95.5c-0.9,0.4-1.7,0.5-1.8,0.2c-0.1-0.3,0.5-0.8,1.4-1.2c0.9-0.4,1.7-0.5,1.8-0.2
				C135.2,94.6,134.6,95.1,133.7,95.5z"/>
			<path class="st15" d="M133.4,93.4c-1.7,0.7-2.8,1.8-2.5,2.5c0.3,0.7,1.9,0.6,3.5-0.1c1.7-0.7,2.8-1.8,2.5-2.5
				C136.6,92.7,135.1,92.7,133.4,93.4z M134.1,95.1c-0.9,0.4-1.7,0.5-1.8,0.2c-0.1-0.3,0.5-0.8,1.4-1.2c0.9-0.4,1.7-0.5,1.8-0.2
				C135.6,94.2,135,94.7,134.1,95.1z"/>
			<path class="st16" d="M133.2,93c-1.7,0.7-2.8,1.8-2.5,2.5c0.3,0.7,1.9,0.6,3.5-0.1c1.7-0.7,2.8-1.8,2.5-2.5
				C136.5,92.3,134.9,92.3,133.2,93z M133.9,94.7c-0.9,0.4-1.7,0.5-1.8,0.2c-0.1-0.3,0.5-0.8,1.4-1.2c0.9-0.4,1.7-0.5,1.8-0.2
				C135.4,93.8,134.8,94.3,133.9,94.7z"/>
			<path class="st17" d="M135,94.6c0.5-0.3,0.9-0.7,0.7-1.2c-0.2-0.4-0.8-0.5-1.3-0.3c1.1-0.3,1.9-0.2,2,0.1
				C136.5,93.3,136,94,135,94.6z M133,95.4c-1.1,0.3-1.9,0.2-2-0.1c-0.1-0.2,0.4-0.9,1.3-1.5c-0.5,0.3-0.9,0.7-0.7,1.2
				C131.9,95.5,132.5,95.5,133,95.4z"/>
			<path class="st18" d="M133.5,93.6c-1.1,0.5-1.9,1.1-1.7,1.4c0.1,0.3,1.1,0.2,2.2-0.2c1.1-0.5,1.9-1.1,1.7-1.4
				C135.5,93.1,134.5,93.2,133.5,93.6z M133.9,94.7c-0.8,0.4-1.6,0.4-1.7,0.2s0.5-0.7,1.3-1.1c0.8-0.4,1.6-0.4,1.7-0.2
				C135.4,93.8,134.8,94.3,133.9,94.7z"/>
		</g>
		<g>
			<path class="st5" d="M144,61.2c-1.7,0.7-2.8,1.8-2.5,2.5c0.3,0.7,1.9,0.6,3.5-0.1c1.7-0.7,2.8-1.8,2.5-2.5
				C147.2,60.5,145.6,60.5,144,61.2z M144.7,62.9c-0.9,0.4-1.7,0.5-1.8,0.2c-0.1-0.3,0.5-0.8,1.4-1.2c0.9-0.4,1.7-0.5,1.8-0.2
				C146.2,62,145.6,62.5,144.7,62.9z"/>
			<path class="st15" d="M144.4,60.8c-1.7,0.7-2.8,1.8-2.5,2.5c0.3,0.7,1.9,0.6,3.5-0.1c1.7-0.7,2.8-1.8,2.5-2.5
				C147.7,60.1,146.1,60.1,144.4,60.8z M145.1,62.5c-0.9,0.4-1.7,0.5-1.8,0.2c-0.1-0.3,0.5-0.8,1.4-1.2c0.9-0.4,1.7-0.5,1.8-0.2
				C146.6,61.6,146,62.1,145.1,62.5z"/>
			<path class="st16" d="M144.2,60.4c-1.7,0.7-2.8,1.8-2.5,2.5c0.3,0.7,1.9,0.6,3.5-0.1c1.7-0.7,2.8-1.8,2.5-2.5
				C147.5,59.6,145.9,59.7,144.2,60.4z M144.9,62.1c-0.9,0.4-1.7,0.5-1.8,0.2c-0.1-0.3,0.5-0.8,1.4-1.2c0.9-0.4,1.7-0.5,1.8-0.2
				C146.5,61.2,145.8,61.7,144.9,62.1z"/>
			<path class="st17" d="M146,61.9c0.5-0.3,0.9-0.7,0.7-1.2c-0.2-0.4-0.8-0.5-1.3-0.3c1.1-0.3,1.9-0.2,2,0.1
				C147.5,60.7,147,61.3,146,61.9z M144,62.8c-1.1,0.3-1.9,0.2-2-0.1c-0.1-0.2,0.4-0.9,1.3-1.5c-0.5,0.3-0.9,0.7-0.7,1.2
				C142.9,62.9,143.5,62.9,144,62.8z"/>
			<path class="st18" d="M144.5,61c-1.1,0.5-1.9,1.1-1.7,1.4c0.1,0.3,1.1,0.2,2.2-0.2c1.1-0.5,1.9-1.1,1.7-1.4
				C146.5,60.4,145.6,60.5,144.5,61z M144.9,62.1c-0.8,0.4-1.6,0.4-1.7,0.2c-0.1-0.3,0.5-0.7,1.3-1.1c0.8-0.4,1.6-0.4,1.7-0.2
				C146.4,61.2,145.8,61.7,144.9,62.1z"/>
		</g>
		<g>
			<path class="st5" d="M114.6,56.7c-1.7,0.7-2.8,1.8-2.5,2.5c0.3,0.7,1.9,0.6,3.5-0.1c1.7-0.7,2.8-1.8,2.5-2.5
				C117.9,56,116.3,56,114.6,56.7z M115.3,58.4c-0.9,0.4-1.7,0.5-1.8,0.2c-0.1-0.3,0.5-0.8,1.4-1.2c0.9-0.4,1.7-0.5,1.8-0.2
				C116.9,57.5,116.2,58,115.3,58.4z"/>
			<path class="st15" d="M115,56.3c-1.7,0.7-2.8,1.8-2.5,2.5c0.3,0.7,1.9,0.6,3.5-0.1c1.7-0.7,2.8-1.8,2.5-2.5
				C118.3,55.6,116.7,55.6,115,56.3z M115.8,58c-0.9,0.4-1.7,0.5-1.8,0.2c-0.1-0.3,0.5-0.8,1.4-1.2c0.9-0.4,1.7-0.5,1.8-0.2
				C117.3,57.1,116.6,57.6,115.8,58z"/>
			<path class="st16" d="M114.9,55.9c-1.7,0.7-2.8,1.8-2.5,2.5c0.3,0.7,1.9,0.6,3.5-0.1c1.7-0.7,2.8-1.8,2.5-2.5
				C118.1,55.2,116.5,55.2,114.9,55.9z M115.6,57.6c-0.9,0.4-1.7,0.5-1.8,0.2c-0.1-0.3,0.5-0.8,1.4-1.2c0.9-0.4,1.7-0.5,1.8-0.2
				C117.1,56.7,116.5,57.2,115.6,57.6z"/>
			<path class="st17" d="M116.7,57.5c0.5-0.3,0.9-0.7,0.7-1.2c-0.2-0.4-0.8-0.5-1.3-0.3c1.1-0.3,1.9-0.2,2,0.1
				C118.1,56.2,117.7,56.9,116.7,57.5z M114.7,58.3c-1.1,0.3-1.9,0.2-2-0.1c-0.1-0.2,0.4-0.9,1.3-1.5c-0.5,0.3-0.9,0.7-0.7,1.2
				C113.6,58.4,114.1,58.4,114.7,58.3z"/>
			<path class="st18" d="M115.1,56.5c-1.1,0.5-1.9,1.1-1.7,1.4c0.1,0.3,1.1,0.2,2.2-0.2c1.1-0.5,1.9-1.1,1.7-1.4
				C117.2,56,116.2,56.1,115.1,56.5z M115.6,57.6c-0.8,0.4-1.6,0.4-1.7,0.2c-0.1-0.3,0.5-0.7,1.3-1.1c0.8-0.4,1.6-0.4,1.7-0.2
				C117,56.7,116.4,57.2,115.6,57.6z"/>
		</g>
		<g>
			<path class="st5" d="M86.9,97.5c-1.7,0.7-2.8,1.8-2.5,2.5c0.3,0.7,1.9,0.6,3.5-0.1c1.7-0.7,2.8-1.8,2.5-2.5
				C90.2,96.7,88.6,96.8,86.9,97.5z M87.6,99.2c-0.9,0.4-1.7,0.5-1.8,0.2c-0.1-0.3,0.5-0.8,1.4-1.2c0.9-0.4,1.7-0.5,1.8-0.2
				C89.1,98.3,88.5,98.8,87.6,99.2z"/>
			<path class="st15" d="M87.3,97.1c-1.7,0.7-2.8,1.8-2.5,2.5c0.3,0.7,1.9,0.6,3.5-0.1c1.7-0.7,2.8-1.8,2.5-2.5
				C90.6,96.4,89,96.4,87.3,97.1z M88,98.8c-0.9,0.4-1.7,0.5-1.8,0.2c-0.1-0.3,0.5-0.8,1.4-1.2c0.9-0.4,1.7-0.5,1.8-0.2
				C89.6,97.9,88.9,98.4,88,98.8z"/>
			<path class="st16" d="M87.1,96.7c-1.7,0.7-2.8,1.8-2.5,2.5c0.3,0.7,1.9,0.6,3.5-0.1c1.7-0.7,2.8-1.8,2.5-2.5
				C90.4,95.9,88.8,96,87.1,96.7z M87.8,98.4c-0.9,0.4-1.7,0.5-1.8,0.2c-0.1-0.3,0.5-0.8,1.4-1.2c0.9-0.4,1.7-0.5,1.8-0.2
				C89.4,97.5,88.7,98,87.8,98.4z"/>
			<path class="st17" d="M89,98.2c0.5-0.3,0.9-0.7,0.7-1.2c-0.2-0.4-0.8-0.5-1.3-0.3c1.1-0.3,1.9-0.2,2,0.1C90.4,97,90,97.6,89,98.2
				z M87,99.1c-1.1,0.3-1.9,0.2-2-0.1c-0.1-0.2,0.4-0.9,1.3-1.5c-0.5,0.3-0.9,0.7-0.7,1.2C85.8,99.2,86.4,99.2,87,99.1z"/>
			<path class="st18" d="M87.4,97.3c-1.1,0.5-1.9,1.1-1.7,1.4c0.1,0.3,1.1,0.2,2.2-0.2c1.1-0.5,1.9-1.1,1.7-1.4
				C89.5,96.7,88.5,96.8,87.4,97.3z M87.8,98.3c-0.8,0.4-1.6,0.4-1.7,0.2c-0.1-0.3,0.5-0.7,1.3-1.1c0.8-0.4,1.6-0.4,1.7-0.2
				C89.3,97.5,88.7,98,87.8,98.3z"/>
		</g>
		<g>
			<path class="st5" d="M67,115c-1.7,0.7-2.8,1.8-2.5,2.5c0.3,0.7,1.9,0.6,3.5-0.1c1.7-0.7,2.8-1.8,2.5-2.5
				C70.2,114.2,68.6,114.3,67,115z M67.7,116.7c-0.9,0.4-1.7,0.5-1.8,0.2c-0.1-0.3,0.5-0.8,1.4-1.2c0.9-0.4,1.7-0.5,1.8-0.2
				C69.2,115.8,68.6,116.3,67.7,116.7z"/>
			<path class="st15" d="M67.4,114.6c-1.7,0.7-2.8,1.8-2.5,2.5c0.3,0.7,1.9,0.6,3.5-0.1c1.7-0.7,2.8-1.8,2.5-2.5
				C70.6,113.8,69.1,113.9,67.4,114.6z M68.1,116.3c-0.9,0.4-1.7,0.5-1.8,0.2c-0.1-0.3,0.5-0.8,1.4-1.2c0.9-0.4,1.7-0.5,1.8-0.2
				C69.6,115.4,69,115.9,68.1,116.3z"/>
			<path class="st16" d="M67.2,114.2c-1.7,0.7-2.8,1.8-2.5,2.5c0.3,0.7,1.9,0.6,3.5-0.1c1.7-0.7,2.8-1.8,2.5-2.5
				C70.5,113.4,68.9,113.5,67.2,114.2z M67.9,115.9c-0.9,0.4-1.7,0.5-1.8,0.2c-0.1-0.3,0.5-0.8,1.4-1.2c0.9-0.4,1.7-0.5,1.8-0.2
				C69.4,115,68.8,115.5,67.9,115.9z"/>
			<path class="st17" d="M69,115.7c0.5-0.3,0.9-0.7,0.7-1.2c-0.2-0.4-0.8-0.5-1.3-0.3c1.1-0.3,1.9-0.2,2,0.1
				C70.5,114.5,70,115.1,69,115.7z M67,116.6c-1.1,0.3-1.9,0.2-2-0.1c-0.1-0.2,0.4-0.9,1.3-1.5c-0.5,0.3-0.9,0.7-0.7,1.2
				C65.9,116.7,66.5,116.7,67,116.6z"/>
			<path class="st18" d="M67.5,114.8c-1.1,0.5-1.9,1.1-1.7,1.4c0.1,0.3,1.1,0.2,2.2-0.2c1.1-0.5,1.9-1.1,1.7-1.4
				C69.5,114.2,68.5,114.3,67.5,114.8z M67.9,115.8c-0.8,0.4-1.6,0.4-1.7,0.2c-0.1-0.3,0.5-0.7,1.3-1.1c0.8-0.4,1.6-0.4,1.7-0.2
				C69.4,115,68.8,115.5,67.9,115.8z"/>
		</g>
		<g>
			<path class="st5" d="M44.1,103.6c-1.7,0.7-2.8,1.8-2.5,2.5c0.3,0.7,1.9,0.6,3.5-0.1c1.7-0.7,2.8-1.8,2.5-2.5
				C47.3,102.9,45.8,102.9,44.1,103.6z M44.8,105.3c-0.9,0.4-1.7,0.5-1.8,0.2c-0.1-0.3,0.5-0.8,1.4-1.2c0.9-0.4,1.7-0.5,1.8-0.2
				C46.3,104.4,45.7,104.9,44.8,105.3z"/>
			<path class="st15" d="M44.5,103.2c-1.7,0.7-2.8,1.8-2.5,2.5c0.3,0.7,1.9,0.6,3.5-0.1c1.7-0.7,2.8-1.8,2.5-2.5
				C47.8,102.5,46.2,102.5,44.5,103.2z M45.2,104.9c-0.9,0.4-1.7,0.5-1.8,0.2c-0.1-0.3,0.5-0.8,1.4-1.2c0.9-0.4,1.7-0.5,1.8-0.2
				C46.8,104,46.1,104.5,45.2,104.9z"/>
			<path class="st16" d="M44.3,102.8c-1.7,0.7-2.8,1.8-2.5,2.5c0.3,0.7,1.9,0.6,3.5-0.1c1.7-0.7,2.8-1.8,2.5-2.5
				C47.6,102,46,102.1,44.3,102.8z M45,104.5c-0.9,0.4-1.7,0.5-1.8,0.2c-0.1-0.3,0.5-0.8,1.4-1.2c0.9-0.4,1.7-0.5,1.8-0.2
				C46.6,103.6,45.9,104.1,45,104.5z"/>
			<path class="st17" d="M46.2,104.3c0.5-0.3,0.9-0.7,0.7-1.2c-0.2-0.4-0.8-0.5-1.3-0.3c1.1-0.3,1.9-0.2,2,0.1
				C47.6,103.1,47.1,103.7,46.2,104.3z M44.2,105.2c-1.1,0.3-1.9,0.2-2-0.1c-0.1-0.2,0.4-0.9,1.3-1.5c-0.5,0.3-0.9,0.7-0.7,1.2
				C43,105.3,43.6,105.3,44.2,105.2z"/>
			<path class="st18" d="M44.6,103.4c-1.1,0.5-1.9,1.1-1.7,1.4c0.1,0.3,1.1,0.2,2.2-0.2c1.1-0.5,1.9-1.1,1.7-1.4
				C46.7,102.8,45.7,102.9,44.6,103.4z M45,104.5c-0.8,0.4-1.6,0.4-1.7,0.2c-0.1-0.3,0.5-0.7,1.3-1.1c0.8-0.4,1.6-0.4,1.7-0.2
				C46.5,103.6,45.9,104.1,45,104.5z"/>
		</g>
		<g>
			<path class="st19" d="M187.9,123.8c2.7-2.2,4.5-5.7,4.2-9.2c-0.2-2.6-1.4-5.1-3.1-7.1c-2.8-3.4-6.9-5.8-11.3-6.3
				c-4.4-0.4-9,1.2-11.9,4.6c-2.9,3.3-3.8,8.3-2.1,12.4c1.2,2.8,3.6,5,6.3,6.5C175.7,127.9,182.7,128.1,187.9,123.8z"/>
			<path class="st20" d="M166.1,105.9c2.8-3.2,7.2-4.8,11.5-4.4c0.2,0,0.5,0.1,0.7,0.1c0,0,0.1,0.1,0.1,0.1c0.5,0.5,1.1,0.8,1.7,1.1
				c0.6,0.3,1.3,0.6,1.7,1.2c-1.5-0.1-3-0.1-4.4-0.2c1.7,1.5,3.8,2.6,6.1,3.1c-0.4,1.3-0.1,2.8,0.7,3.8c0.8,1.1,2.2,1.7,3.5,1.7
				c-1-1.1-1.3-2.7-0.8-4c0.9,1.2,2.2,2.1,3.7,2.4c0.5,1.1,0.8,2.3,0.9,3.5c0.2,3.4-1.5,6.7-4.1,8.9c-5,4.1-11.8,3.9-17.2,0.9
				c-2.6-1.4-4.9-3.5-6-6.3C162.4,113.9,163.3,109.1,166.1,105.9z"/>
			<path class="st21" d="M183.1,113c-0.7-4-4.4-7.3-8.4-7.5c0.6-1.3,1.8-2.3,3.2-2.6c-4.4-1.1-9.4,0.9-11.8,4.7s-2,9.2,0.9,12.7
				c2.4,2.8,7.6,5,11.2,3.3C181.6,121.9,183.7,116.5,183.1,113z"/>
			<path class="st22" d="M179.4,102.8c-0.4-0.3-0.8-0.7-1-1.2c-0.6-1-0.5-2.3,0.2-3.2c-0.1,0.8,0.9,1.4,1.6,1.7
				c0.7,0.3,1.5,0.4,2.2,0.6c1,0.4,1.3,1.4,1.8,2.3c0.4-0.5,0.9-1.5,1.5-1.6c0.7-0.2,1.6,0.8,2,0.7c-0.8,0.3-1.6,0.7-2.2,1.3
				c1.8,0,3,0,3.9,1.8c0.5,0.9,0.8,2,1.4,2.8c0.6,0.9,1.8,1.5,2.7,1c-1.3,0.6-2.6,1.1-4,0.6c-1.4-0.4-2.7-1.4-3.4-2.7
				c0.1,0.6,0.1,1-0.2,1.6c-0.3,0.5-0.5,1.1-0.5,1.7c0,0.6,0.5,1.2,1.1,1.2c-1.3,0.5-2.7-0.5-3.2-1.7c-0.5-1.3-0.4-2.7-0.2-4.1
				c-0.5,0.9-1.7,0.7-2.7,0.3c-1-0.3-1.8-1-2.7-1.4c-0.9-0.4-2.1-0.6-2.8,0.1C176,103.5,177.8,102.7,179.4,102.8z"/>
			<path class="st15" d="M179.4,102.8c-0.4-0.3-0.8-0.7-1-1.2c-0.6-1-0.5-2.3,0.2-3.2c-0.1,0.8,0.9,1.4,1.6,1.7
				c0.7,0.3,1.5,0.4,2.2,0.6c1,0.4,1.3,1.4,1.8,2.3c0.4-0.5,0.9-1.5,1.5-1.6c0.5-0.1,1.1,0.3,1.5,0.5c-0.3,0-0.6,0-0.9,0.1
				c-0.8,0.3-1.5,1.2-1.7,2c1-0.2,1.8,0.7,2.3,1.6c0.4,0.9,0.7,2,1.5,2.6c-1-0.3-1.8-1-2.4-1.9c-0.5,1.6-0.8,3.2-0.9,4.8
				c-0.8-0.4-1.5-1.1-2-1.9c-0.3-1.2-0.2-2.4,0-3.7c-0.5,0.9-1.7,0.7-2.7,0.3c-1-0.3-1.8-1-2.7-1.4c-0.9-0.4-2.1-0.6-2.8,0.1
				C176,103.5,177.8,102.7,179.4,102.8z"/>
			<path class="st23" d="M165.7,114.1c0.4,3.1,2.1,6.2,4.8,7.8c2.7,1.6,6.5,1.4,8.8-0.8c3.7-3.8,1.3-8.8-1.4-12.2
				c-2.5-3.1-5.4-5.5-9.4-2.7C165.9,107.9,165.3,111.2,165.7,114.1z"/>
			<path class="st24" d="M168.8,112.5c2.2,0.2,3.5-3.2,1.7-4.5c-0.8-0.6-2-0.4-2.8,0.2c-0.7,0.6-1.1,1.6-0.9,2.5
				C167,111.7,167.8,112.4,168.8,112.5z"/>
			<path class="st24" d="M167.4,115c-0.3,4.2,6.2,0.2,2.4-1.5C168.7,113.1,167.4,113.9,167.4,115z"/>
			<path class="st25" d="M176.6,103.9c1-0.3,2.1,0,3.1,0.4c0.7,0.2,1.8,0.6,2.4,0.3c1-0.4-0.1-0.9-0.7-1.1
				C179.9,103,178.1,103.2,176.6,103.9z"/>
			<path class="st25" d="M179.8,100.5c-0.5-0.2-1.1-0.4-1.3-0.9c0,0.8,0.2,1.5,0.7,2.1c0.6,0.6,2.4,1.7,3,0.6
				C183.1,100.9,180.5,100.7,179.8,100.5z"/>
			<path class="st25" d="M185.7,106.8c-0.1,0.7-0.5,1.3-0.7,2c-0.2,0.7-0.3,1.4,0.1,2c-0.6-0.3-0.8-1.1-0.7-1.8
				c0.1-0.7,0.4-1.3,0.6-2c0.2-0.6,0.1-1.4-0.4-1.9C185.6,104.7,185.8,106.2,185.7,106.8z"/>
		</g>
		<g>
			<path class="st26" d="M9.8,63c1-1.7,3-2.8,5-2.7c2,0.2,3.8,1.7,4.1,3.7c0.3,1.8,0.3,2.1,1.7,3.2c1.2,0.9,2,2.2,2.3,3.7
				c0.2,1,0.1,2.2,0.8,3c0.6,0.6,1.5,0.8,2.1,1.4c0.8,0.7,1.2,1.7,1.7,2.6c1.1,1.9,3.3,2.9,5.2,3.8c0.1,2.2-4.1,0.9-5,0.5
				c-1.8-0.7-3.4-1.8-5.3-2.2c-1.3-0.2-2.6-0.1-3.8-0.7c-2.1-1-2.8-3.5-4.3-5.2c-1-1-2.3-1.7-3.4-2.6C8.6,69.7,8.2,65.6,9.8,63z"/>
			<path class="st27" d="M15.7,62.1c0.9,1.2,0.9,3,0,4.3c-0.3-0.9-1.2-1.3-2.1-1.4c-0.9-0.1-1.8,0.1-2.7-0.1c0.1,0-1.2,2.5-1.2,2.8
				c-0.1,1.2,1.1,2.5,2,3.1c1.3,0.9,2.8,1.5,3.8,2.7c1,1.1,1.4,2.6,2.4,3.7c1.7,2,4.6,2.1,6.9,2.9c3,0.9,4.6,3.1,8.1,2
				c0,0.2-0.1,0.4-0.1,0.5c0.1-0.2,0.2-0.4,0.2-0.8c-1.9-0.9-4.1-1.9-5.2-3.8c-0.5-0.9-0.9-2-1.7-2.6c-0.7-0.5-1.6-0.7-2.1-1.4
				c-0.7-0.8-0.7-2-0.8-3c-0.3-1.5-1.1-2.8-2.3-3.7c-1.4-1.1-1.4-1.4-1.7-3.2c-0.1-0.9-0.6-1.7-1.2-2.3
				C17.2,62.2,16.4,62.3,15.7,62.1z"/>
			<path class="st22" d="M16,66.6c-0.1-0.7-0.8-1.2-1.5-1.4c-0.7-0.2-1.4-0.3-2-0.5c-0.6-0.3-1.2-0.9-1.1-1.6c-0.8,2-2.4,3.5-4.4,4
				c0.6-1.2,0.6-2.6,0.8-3.9c0.3-1.3,1.1-2.7,2.5-2.8c-1.5-1-2.3-3-2-4.8c0.7,0,1.3-0.1,2.1-0.1c-0.5,1.6,0.2,3.4,1.6,4.3
				c0.8-0.9,2.1-0.8,3.3-0.5c1.2,0.3,2.4,0.7,3.5,0.2c-0.8,1.5-2.5,2.5-4.2,2.4C16.1,62.6,16.8,65,16,66.6z"/>
			<path class="st28" d="M11.8,65.6c-0.6,0.6-0.7,1.6-0.3,2.4c0.3,0.8,1,1.4,1.6,2c2.1,2,4.2,4,6.5,5.7c3.6,2.5,7.3,5,11.6,6
				c-2.5-1-3.8-2.7-5.1-5c-1-1.7-3-2.3-3.8-4.2c-0.6-1.4-0.3-2.6-1.4-3.7c-0.5-0.5-1.1-0.9-1.6-1.5c-1-1-0.7-2.7-1.3-4
				c-0.3-0.7-1-1.3-1.7-1.1c1.1,1.7,1,4.1,0,5.8C15.7,66.2,13.8,65.2,11.8,65.6z"/>
			<path class="st29" d="M17.1,70.6c-0.4-0.6-0.3-1.4,0.1-1.9c0.4-0.5,1.1-0.8,1.8-0.6c0.8,0.2,1.4,1,1.7,1.8
				c0.3,0.8,0.4,1.7,0.7,2.5c0.6,1.4,1.8,2.4,2.8,3.4c1.1,1,2.2,2.2,2.4,3.6c-1.7-1.4-3.9-2.5-5.8-3.8
				C18.9,74.3,18.3,72.5,17.1,70.6z"/>
			<path class="st15" d="M11.9,60.2c-0.8-0.4-1.4-1-1.7-1.8c-0.4-0.8-0.5-1.7-0.4-2.5c-0.3,0-0.7,0-1,0c-0.1,1.5,0.6,3,1.8,3.9
				c0.3,0.3,0.7,0.5,0.9,0.8c0.2,0.3,0.2,0.8,0.4,1.1c0.4,0.8,1.3,1.1,2.2,1.5c0.8,0.3,1.7,1,1.7,1.9c0.2-1.6-1-3.2-2.6-3.6
				c1.6,0.5,3.5-0.1,4.6-1.3c-0.8,0.1-1.6,0.1-2.4-0.1c-0.6-0.2-1.2-0.4-1.8-0.5S12.3,59.7,11.9,60.2z"/>
		</g>
		<g>
			<path class="st5" d="M54.8,105.4c2.6-2.1,5.9-2.6,7.6-3.4c3.2-1.4,15.2-8.1,14.6-0.8c-0.1,1.1-1.6,3.8-2.3,4.6
				c-3,3.3-6.6,5.7-10.8,7.1c-2.6,0.8-9.7,3-11.6-0.1C50.9,110.4,52.5,107.2,54.8,105.4z"/>
			<path class="st8" d="M54.9,104.3c2.6-2.1,6.2-3.7,7.9-4.4c2.9-1.3,6-2.6,9.2-2.9c1.4-0.1,3.1-0.2,4.1,0.8
				c3.2,3.1-1.2,7.4-3.5,9.1c-3.2,2.4-7.5,4.2-11.4,5.1c-2.4,0.6-7,1.3-8.7-1.4C51.3,108.4,52.7,106.2,54.9,104.3z"/>
			<path class="st9" d="M54.9,104.4c2.5-2,6-3.5,7.7-4.3c2.8-1.2,5.9-2.4,8.9-2.8c1.3-0.2,3-0.2,4.1,0.6c2.1,1.6,0.6,4.4-0.8,5.9
				c-2.8,2.9-6.7,5-10.5,6.3c-2.5,0.8-9.5,3-11.4,0.2C51.4,108.2,52.7,106.2,54.9,104.4z"/>
			<path class="st10" d="M72.8,100.6c1.1,0.1,2.2,0.4,3.2,0.8c0.2-0.5,0.4-1,0.3-1.6c-0.1-0.6-0.3-1.1-0.9-1.5
				c-0.6-0.4-1.3-0.6-2.4-0.6c-0.5,0-1,0.1-1.4,0.1c-3.1,0.4-6,1.5-8.8,2.7c-0.7,0.3-1.7,0.8-2.9,1.3
				C63.9,100.3,68.6,100,72.8,100.6z"/>
			<g>
				
					<ellipse transform="matrix(0.9188 -0.3947 0.3947 0.9188 -37.1887 30.9394)" class="st11" cx="56.6" cy="105.9" rx="1.7" ry="0.7"/>
				
					<ellipse transform="matrix(0.9188 -0.3947 0.3947 0.9188 -36.2029 34.2239)" class="st11" cx="65.1" cy="105.1" rx="1.7" ry="0.7"/>
				
					<ellipse transform="matrix(0.9188 -0.3947 0.3947 0.9188 -36.2199 32.713)" class="st11" cx="61.4" cy="104.4" rx="1" ry="0.4"/>
				
					<ellipse transform="matrix(0.9188 -0.3947 0.3947 0.9188 -37.8609 32.6969)" class="st11" cx="60.5" cy="108.4" rx="1" ry="0.4"/>
				
					<ellipse transform="matrix(0.9188 -0.3947 0.3947 0.9188 -34.3584 34.4028)" class="st11" cx="66.4" cy="100.7" rx="0.6" ry="0.3"/>
				
					<ellipse transform="matrix(0.9188 -0.3947 0.3947 0.9188 -35.2337 36.4659)" class="st11" cx="71" cy="103.9" rx="0.6" ry="0.3"/>
				
					<ellipse transform="matrix(0.9188 -0.3947 0.3947 0.9188 -33.4923 37.4917)" class="st11" cx="74.4" cy="100.2" rx="1" ry="0.4"/>
				<ellipse transform="matrix(0.9188 -0.3947 0.3947 0.9188 -38.8528 30.6184)" class="st11" cx="55" cy="109.7" rx="1" ry="0.4"/>
				<ellipse transform="matrix(0.9188 -0.3947 0.3947 0.9188 -33.4234 35.6639)" class="st11" cx="70" cy="99.1" rx="1" ry="0.4"/>
				
					<ellipse transform="matrix(0.9188 -0.3947 0.3947 0.9188 -34.7418 35.3984)" class="st11" cx="68.7" cy="102.1" rx="1" ry="0.4"/>
			</g>
		</g>
		<g>
			<path class="st5" d="M94.8,101.9c2.6-2.1,5.9-2.6,7.6-3.4c3.2-1.4,15.2-8.1,14.6-0.8c-0.1,1.1-1.6,3.8-2.3,4.6
				c-3,3.3-6.6,5.7-10.8,7.1c-2.6,0.8-9.7,3-11.6-0.1C90.9,107,92.6,103.7,94.8,101.9z"/>
			<path class="st8" d="M95,100.9c2.6-2.1,6.2-3.7,7.9-4.4c2.9-1.3,6-2.6,9.2-2.9c1.4-0.1,3.1-0.2,4.1,0.8c3.2,3.1-1.2,7.4-3.5,9.1
				c-3.2,2.4-7.5,4.2-11.4,5.1c-2.4,0.6-7,1.3-8.7-1.4C91.3,104.9,92.7,102.7,95,100.9z"/>
			<path class="st9" d="M94.9,101c2.5-2,6-3.5,7.7-4.3c2.8-1.2,5.9-2.4,8.9-2.8c1.3-0.2,3-0.2,4.1,0.6c2.1,1.6,0.6,4.4-0.8,5.9
				c-2.8,2.9-6.7,5-10.5,6.3c-2.5,0.8-9.5,3-11.4,0.2C91.4,104.8,92.7,102.7,94.9,101z"/>
			<path class="st10" d="M112.8,97.1c1.1,0.1,2.2,0.4,3.2,0.8c0.2-0.5,0.4-1,0.3-1.6c-0.1-0.6-0.3-1.1-0.9-1.5
				c-0.6-0.4-1.3-0.6-2.4-0.6c-0.5,0-1,0.1-1.4,0.1c-3.1,0.4-6,1.5-8.8,2.7c-0.7,0.3-1.7,0.8-2.9,1.3
				C103.9,96.9,108.6,96.6,112.8,97.1z"/>
			<g>
				
					<ellipse transform="matrix(0.9188 -0.3947 0.3947 0.9188 -32.5859 46.4564)" class="st11" cx="96.6" cy="102.4" rx="1.7" ry="0.7"/>
				
					<ellipse transform="matrix(0.9188 -0.3947 0.3947 0.9188 -31.5995 49.7394)" class="st11" cx="105.1" cy="101.7" rx="1.7" ry="0.7"/>
				
					<ellipse transform="matrix(0.9188 -0.3947 0.3947 0.9188 -31.6163 48.2289)" class="st11" cx="101.4" cy="101" rx="1" ry="0.4"/>
				
					<ellipse transform="matrix(0.9188 -0.3947 0.3947 0.9188 -33.2573 48.2128)" class="st11" cx="100.6" cy="104.9" rx="1" ry="0.4"/>
				
					<ellipse transform="matrix(0.9188 -0.3947 0.3947 0.9188 -29.753 49.9158)" class="st11" cx="106.5" cy="97.3" rx="0.6" ry="0.3"/>
				
					<ellipse transform="matrix(0.9188 -0.3947 0.3947 0.9188 -30.6316 51.9857)" class="st11" cx="111" cy="100.4" rx="0.6" ry="0.3"/>
				
					<ellipse transform="matrix(0.9188 -0.3947 0.3947 0.9188 -28.8898 53.0096)" class="st11" cx="114.4" cy="96.7" rx="1" ry="0.4"/>
				<ellipse transform="matrix(0.9188 -0.3947 0.3947 0.9188 -34.249 46.1346)" class="st11" cx="95" cy="106.3" rx="1" ry="0.4"/>
				<ellipse transform="matrix(0.9188 -0.3947 0.3947 0.9188 -28.8197 51.1798)" class="st11" cx="110" cy="95.6" rx="1" ry="0.4"/>
				
					<ellipse transform="matrix(0.9188 -0.3947 0.3947 0.9188 -30.1392 50.9165)" class="st11" cx="108.7" cy="98.7" rx="1" ry="0.4"/>
			</g>
		</g>
		<g>
			<path class="st5" d="M136.1,75.1c2.6-2.1,5.9-2.6,7.6-3.4c3.2-1.4,15.2-8.1,14.6-0.8c-0.1,1.1-1.6,3.8-2.3,4.6
				c-3,3.3-6.6,5.7-10.8,7.1c-2.6,0.8-9.7,3-11.6-0.1C132.2,80.2,133.8,77,136.1,75.1z"/>
			<path class="st8" d="M136.2,74.1c2.6-2.1,6.2-3.7,7.9-4.4c2.9-1.3,6-2.6,9.2-2.9c1.4-0.1,3.1-0.2,4.1,0.8
				c3.2,3.1-1.2,7.4-3.5,9.1c-3.2,2.4-7.5,4.2-11.4,5.1c-2.4,0.6-7,1.3-8.7-1.4C132.6,78.2,134,76,136.2,74.1z"/>
			<path class="st9" d="M136.2,74.2c2.5-2,6-3.5,7.7-4.3c2.8-1.2,5.9-2.4,8.9-2.8c1.3-0.2,3-0.2,4.1,0.6c2.1,1.6,0.6,4.4-0.8,5.9
				c-2.8,2.9-6.7,5-10.5,6.3c-2.5,0.8-9.5,3-11.4,0.2C132.7,78,134,75.9,136.2,74.2z"/>
			<path class="st10" d="M154.1,70.4c1.1,0.1,2.2,0.4,3.2,0.8c0.2-0.5,0.4-1,0.3-1.6c-0.1-0.6-0.3-1.1-0.9-1.5
				c-0.6-0.4-1.3-0.6-2.4-0.6c-0.5,0-1,0.1-1.4,0.1c-3.1,0.4-6,1.5-8.8,2.7c-0.7,0.3-1.7,0.8-2.9,1.3
				C145.2,70.1,149.9,69.8,154.1,70.4z"/>
			<g>
				
					<ellipse transform="matrix(0.9188 -0.3947 0.3947 0.9188 -18.6627 60.5746)" class="st11" cx="137.9" cy="75.7" rx="1.7" ry="0.7"/>
				
					<ellipse transform="matrix(0.9188 -0.3947 0.3947 0.9188 -17.677 63.8591)" class="st11" cx="146.4" cy="74.9" rx="1.7" ry="0.7"/>
				
					<ellipse transform="matrix(0.9188 -0.3947 0.3947 0.9188 -17.6931 62.3461)" class="st11" cx="142.7" cy="74.2" rx="1" ry="0.4"/>
				
					<ellipse transform="matrix(0.9188 -0.3947 0.3947 0.9188 -19.3342 62.3327)" class="st11" cx="141.8" cy="78.2" rx="1" ry="0.4"/>
				
					<ellipse transform="matrix(0.9188 -0.3947 0.3947 0.9188 -15.8303 64.0401)" class="st11" cx="147.7" cy="70.5" rx="0.6" ry="0.3"/>
				
					<ellipse transform="matrix(0.9188 -0.3947 0.3947 0.9188 -16.7073 66.1016)" class="st11" cx="152.3" cy="73.7" rx="0.6" ry="0.3"/>
				
					<ellipse transform="matrix(0.9188 -0.3947 0.3947 0.9188 -14.9668 67.1296)" class="st11" cx="155.7" cy="69.9" rx="1" ry="0.4"/>
				
					<ellipse transform="matrix(0.9188 -0.3947 0.3947 0.9188 -20.3255 60.2536)" class="st11" cx="136.3" cy="79.5" rx="1" ry="0.4"/>
				
					<ellipse transform="matrix(0.9188 -0.3947 0.3947 0.9188 -14.8967 65.2998)" class="st11" cx="151.3" cy="68.9" rx="1" ry="0.4"/>
				<ellipse transform="matrix(0.9188 -0.3947 0.3947 0.9188 -16.2157 65.0324)" class="st11" cx="150" cy="71.9" rx="1" ry="0.4"/>
			</g>
		</g>
		<g>
			<path class="st5" d="M114.1,66.2c2.6-2.1,5.9-2.6,7.6-3.4c3.2-1.4,15.2-8.1,14.6-0.8c-0.1,1.1-1.6,3.8-2.3,4.6
				c-3,3.3-6.6,5.7-10.8,7.1c-2.6,0.8-9.7,3-11.6-0.1C110.1,71.2,111.8,68,114.1,66.2z"/>
			<path class="st8" d="M114.2,65.2c2.6-2.1,6.2-3.7,7.9-4.4c2.9-1.3,6-2.6,9.2-2.9c1.4-0.1,3.1-0.2,4.1,0.8
				c3.2,3.1-1.2,7.4-3.5,9.1c-3.2,2.4-7.5,4.2-11.4,5.1c-2.4,0.6-7,1.3-8.7-1.4C110.5,69.2,112,67,114.2,65.2z"/>
			<path class="st9" d="M114.2,65.2c2.5-2,6-3.5,7.7-4.3c2.8-1.2,5.9-2.4,8.9-2.8c1.3-0.2,3-0.2,4.1,0.6c2.1,1.6,0.6,4.4-0.8,5.9
				c-2.8,2.9-6.7,5-10.5,6.3c-2.5,0.8-9.5,3-11.4,0.2C110.6,69,112,67,114.2,65.2z"/>
			<path class="st10" d="M132,61.4c1.1,0.1,2.2,0.4,3.2,0.8c0.2-0.5,0.4-1,0.3-1.6c-0.1-0.6-0.3-1.1-0.9-1.5
				c-0.6-0.4-1.3-0.6-2.4-0.6c-0.5,0-1,0.1-1.4,0.1c-3.1,0.4-6,1.5-8.8,2.7c-0.7,0.3-1.7,0.8-2.9,1.3
				C123.1,61.1,127.9,60.8,132,61.4z"/>
			<g>
				
					<ellipse transform="matrix(0.9188 -0.3947 0.3947 0.9188 -16.9088 51.1527)" class="st11" cx="115.9" cy="66.7" rx="1.7" ry="0.7"/>
				
					<ellipse transform="matrix(0.9188 -0.3947 0.3947 0.9188 -15.9231 54.4373)" class="st11" cx="124.4" cy="65.9" rx="1.7" ry="0.7"/>
				
					<ellipse transform="matrix(0.9188 -0.3947 0.3947 0.9188 -15.9393 52.9253)" class="st11" cx="120.7" cy="65.2" rx="1" ry="0.4"/>
				<ellipse transform="matrix(0.9188 -0.3947 0.3947 0.9188 -17.58 52.9068)" class="st11" cx="119.8" cy="69.2" rx="1" ry="0.4"/>
				
					<ellipse transform="matrix(0.9188 -0.3947 0.3947 0.9188 -14.0761 54.6122)" class="st11" cx="125.7" cy="61.5" rx="0.6" ry="0.3"/>
				
					<ellipse transform="matrix(0.9188 -0.3947 0.3947 0.9188 -14.9534 56.6781)" class="st11" cx="130.3" cy="64.7" rx="0.6" ry="0.3"/>
				<ellipse transform="matrix(0.9188 -0.3947 0.3947 0.9188 -13.2128 57.7059)" class="st11" cx="133.7" cy="61" rx="1" ry="0.4"/>
				
					<ellipse transform="matrix(0.9188 -0.3947 0.3947 0.9188 -18.5716 50.8299)" class="st11" cx="114.3" cy="70.6" rx="1" ry="0.4"/>
				
					<ellipse transform="matrix(0.9188 -0.3947 0.3947 0.9188 -13.1427 55.8762)" class="st11" cx="129.2" cy="59.9" rx="1" ry="0.4"/>
				<ellipse transform="matrix(0.9188 -0.3947 0.3947 0.9188 -14.4619 55.6128)" class="st11" cx="127.9" cy="63" rx="1" ry="0.4"/>
			</g>
		</g>
		<path class="st6" d="M88.1,82.6c0.1-1.5,0.5-2.9,0.6-4.4c0.1-1.3-0.2-2.7-0.4-4c-1-5.7-2-11.5-3-17.2c-0.1,0.6-0.2,1.2-0.4,1.9
			c-1.4-0.1-2-1.8-2.3-3.2c-0.7-2.6-2.3-4.9-4.3-6.7c-0.8-0.8-1.8-1.5-2.8-2c-1-0.6-2.3-0.7-3.2-1.4c-2.4-1.6-1.6-5.5,0.3-7.2
			c1.9-1.7,5.1-1.8,7.1-0.3c4.7,3.6,6.3,9.8,5.5,15.6c0.5-3.3,0.7-6.5,0.4-9.8c-0.2-2.8,0.7-5.8-0.6-8.6c-0.9-2-2.8-3.5-4.6-4.8
			c-6.1-4.5-12.6-9-16.1-15.7c-0.8-1.5-1.4-3.1-2.8-3.9c-1.1-0.7-2.5-0.8-3.8-0.8c-6.3-0.1-12.6,1.4-18.3,4.2
			c-2.8,1.4-5.8,3.1-8.1,5.2c-2,1.9-4.2,3.2-5.3,5.9c-0.9,2.3-1,4.9-0.9,7.4c0.5,9.4,4,18.4,7.2,27.2c1.8,4.9,3.4,10.1,4.2,15.3
			c0.9,5.5,0.3,10.8-0.2,16.3c2.5-7.7,2.7-16,0.3-23.7c1.6,2.2,2.6,4.7,2.9,7.4c0-1.8-0.4-3.7-1.1-5.3c0.5,0.6,0.9,1.2,1.4,1.7
			c-2.3-4.2-4.2-8.7-5.7-13.4c-2.1-6.9-4.4-13.9-5.5-21.1c-0.3-1.8-0.5-3.7,0-5.5c0.4-1.8,1.7-3.5,3.4-4c2.1-0.6,4.5,0.6,5.8,2.4
			c1.3,1.8,1.8,4,2.3,6.2c2.1,10,3.8,20.3,2,30.4c-0.3,2-0.8,4.2,0.2,6c1.2,2.1,3.8,2.8,5.3,4.6c2.7,3.2,0.8,8.6,3.4,12
			c1.8,2.3,5.1,2.8,8,2.8c1.3,0,2.1-1.4,2.7-2.6c0.6-1.2,1-2.5,2-3.3c0.9-0.8,2.2-0.9,3.4-0.8c2,0.3,4,1.5,4.3,3.6
			c0.1,0.8,0.6,1.7,1.4,1.6c0.6-0.1,0.8-0.8,0.7-1.3c-0.1-0.5-0.5-1-0.9-1.4c-5.6-6.4-9.5-14.4-10.9-22.8c-0.5-3.2-0.7-6.6,0.3-9.8
			c1-3.1,3.3-6,6.4-7c3.7-1.2,8,0.6,10.6,3.5c2.6,2.9,4,6.8,4.8,10.6c1,4.5,1.4,9,1.2,13.6c-0.1,2.8-0.4,5.7,0.3,8.3
			c0.5,1.8,1.9,2.7,3.8,2.6C88.2,85.7,88,84.1,88.1,82.6z M41.7,37.4c-0.1-1.1-0.1-2.2,0.4-3.2c1.3-3.1,5.9-3.2,8.2-1.1
			c1.4,1.3,2,3.4,1.5,5.3c-0.5,1.9-2,3.4-3.9,4c-1.1,0.3-2.2,0.3-3.2-0.1C42.8,41.4,41.9,39.3,41.7,37.4z M62.1,84.4
			c-0.2,1.8-1.1,3.6-2.8,4.2c-1.2,0.4-2.7,0.1-3.8-0.7c-1.1-0.7-1.9-1.8-2.7-2.9c-6.1-8.9-8.2-20-8.4-30.8c-0.1-3.3,1-9.4,5.8-7.2
			c4.6,2.1,4.2,9,4.6,13.1c0.4,4.3,1.6,8.6,3.5,12.5C60.1,76.3,62.5,80.2,62.1,84.4z M65.7,44.8c-0.4,1.4-1.4,2.7-2.6,3.4
			c-1.3,0.7-2.9,0.9-4.2,0.3c-1.3-0.6-2.1-1.8-2.8-3c-0.9-1.7-1.6-3.6-1.4-5.5c0.6-5.4,6.7-5.2,9.6-1.8C65.9,40,66.4,42.5,65.7,44.8
			z"/>
		<path class="st5" d="M33.1,20.6c1.9,1.3,3.9,2.6,5.8,3.9c0.7,0.5,1.4,1,1.9,1.6c0.6,0.8,0.9,1.9,1.4,2.8c0.5,0.9,1.3,1.9,2.3,2
			c1.7,0.2,2.8-1.8,4.3-2.6c2.2-1.2,4.9,0,7.2,1c6.5,3,13.6,4.7,20.7,5c0.9,0,1.9,0.1,2.7,0.4c1.1,0.4,1.9,1.3,2.5,2.3
			c0.3-0.5,0.2-1.1-0.2-1.6c-0.4-0.4-0.9-0.7-1.4-1c-2.1-1.1-4.3-2.2-6.6-2.6c-1.9-0.4-3.9-0.3-5.8-0.5c-5.1-0.5-9.8-2.9-14.3-5.3
			c1.6-0.4,3.1-1.4,4.2-2.6c0.5-0.5,0.9-1.2,0.8-1.9c0-0.8-0.6-1.4-1.4-1.7c-0.7-0.3-1.5-0.3-2.3-0.3c-4.1,0.1-7.3,1.6-11.1,2.8
			C40.1,23.5,37,20.1,33.1,20.6z"/>
		<path class="st8" d="M41.3,23.4c2.4-4,9-5.9,13.3-5.7c0.9,0,1.9,0.2,2.8,0.6c0.8,0.5,1.5,1.3,1.6,2.2c0.1,2-3.5,3.5-5,4.1
			c-1.4,0.5-2.8,1-4.1,1.8c-1.2,0.7-2.2,1.8-3.4,2.4C42.8,30.7,39.1,26.9,41.3,23.4z"/>
		<path class="st9" d="M42.6,22.1c-0.7,0.7-1.4,1.6-1.6,2.6c-0.2,1,0.1,2.1,0.8,2.8c1,0.9,2.5,0.9,3.8,0.4c1.2-0.5,2.3-1.4,3.4-2.1
			c2.1-1.3,4.4-1.9,6.7-2.9c0.6-0.3,1.3-0.6,1.8-1.1c0.5-0.5,0.8-1.2,0.7-1.9c-0.1-0.7-0.7-1.3-1.4-1.6c-0.7-0.3-1.5-0.3-2.2-0.3
			c-1.8,0-3.6,0.3-5.4,0.8c-1.5,0.4-3.1,0.8-4.3,1.7C44.1,21,43.3,21.4,42.6,22.1z"/>
		<path class="st10" d="M54.1,17.9c0.7,0,1.4,0.1,2.1,0.3c0.6,0.3,1.2,0.8,1.4,1.5c0.2,0.7-0.1,1.6-0.7,1.8c0.3-0.1-1.3-1.3-1.5-1.3
			c-1.8-0.8-9.8-0.1-11,1.1C46.7,19,50.8,17.9,54.1,17.9z"/>
		<g>
			
				<ellipse transform="matrix(0.9188 -0.3947 0.3947 0.9188 -5.7051 19.1939)" class="st11" cx="43.8" cy="23.5" rx="1.2" ry="0.5"/>
			
				<ellipse transform="matrix(0.9188 -0.3947 0.3947 0.9188 -4.9971 21.5531)" class="st11" cx="49.9" cy="22.9" rx="1.2" ry="0.5"/>
			
				<ellipse transform="matrix(0.9188 -0.3947 0.3947 0.9188 -5.0088 20.4677)" class="st11" cx="47.2" cy="22.4" rx="0.7" ry="0.3"/>
			
				<ellipse transform="matrix(0.9188 -0.3947 0.3947 0.9188 -6.1873 20.4548)" class="st11" cx="46.6" cy="25.3" rx="0.7" ry="0.3"/>
			
				<ellipse transform="matrix(0.9188 -0.3947 0.3947 0.9188 -3.6705 21.6791)" class="st11" cx="50.9" cy="19.8" rx="0.5" ry="0.2"/>
			<ellipse transform="matrix(0.9188 -0.3947 0.3947 0.9188 -4.3006 23.1641)" class="st11" cx="54.2" cy="22" rx="0.5" ry="0.2"/>
			
				<ellipse transform="matrix(0.9188 -0.3947 0.3947 0.9188 -3.0504 23.9002)" class="st11" cx="56.6" cy="19.4" rx="0.7" ry="0.3"/>
			
				<ellipse transform="matrix(0.9188 -0.3947 0.3947 0.9188 -6.8051 19.4196)" class="st11" cx="43.8" cy="26.3" rx="0.7" ry="0.3"/>
			<ellipse transform="matrix(0.9188 -0.3947 0.3947 0.9188 -3 22.5873)" class="st11" cx="53.4" cy="18.6" rx="0.7" ry="0.3"/>
			<ellipse transform="matrix(0.9188 -0.3947 0.3947 0.9188 -3.9475 22.398)" class="st11" cx="52.5" cy="20.8" rx="0.7" ry="0.3"/>
		</g>
		<path class="st9" d="M90.6,82.2c-0.7-1.9-0.7-4.6,1.8-5.2c1.1-0.2,2.2,0.3,3.1,0.9c2,1.3,4.3,2.1,6.6,2.5c1.1,0.2,2.3,0.4,3.5,0.4
			c1.1,0.1,2.2-0.3,3.3-0.2c1,0.1,2,0.6,2.4,1.5c0.5,1,0.1,2.3-0.7,3.1c-0.8,0.8-1.8,1.3-2.9,1.7c-3.6,1.3-7.6,2-11.2,0.8
			c-2.4-0.8-4.6-2.6-5.8-4.9C90.7,82.6,90.6,82.4,90.6,82.2z"/>
		<path class="st10" d="M101,84.3c2-1,3.9-2.2,6.1-2.8c2.6-0.8,5,1.5,2.3,3.6c-2.1,1.7-5.8,2.5-8.4,2.6c-2.4,0.1-5-0.7-7.1-1.9
			C96.5,86,98.7,85.4,101,84.3z"/>
		<g>
			<path class="st11" d="M97.8,80.1c0,0.1,0,0.2,0.1,0.3c0.1,0.1,0.2,0.1,0.3,0.1c0.4,0.1,0.7,0.2,1.1,0.2c0.1,0,0.3,0,0.3-0.2
				c0-0.1,0-0.2-0.1-0.2c-0.1-0.1-0.2-0.1-0.2-0.1C99,80.2,97.9,79.9,97.8,80.1z"/>
			<path class="st11" d="M102.1,81c-0.1,0-0.2,0-0.2,0.1c-0.1,0.1,0.1,0.3,0.2,0.3c0.6,0.3,1.3,0.5,2,0.5c0.2,0,0.4-0.1,0.4-0.2
				c0-0.1-0.1-0.2-0.2-0.3C103.6,81.1,102.8,81,102.1,81z"/>
			<path class="st11" d="M95.4,80.9c-0.2,0-0.4,0-0.4,0.2c0,0.1,0.1,0.2,0.2,0.3c0.5,0.4,1.1,0.6,1.8,0.7c0.1,0,0.3,0,0.4-0.1
				C98.1,81.4,95.6,80.9,95.4,80.9z"/>
			<path class="st11" d="M93.1,78.1c-0.1,0.1,0.1,0.3,0.2,0.4c0.4,0.4,1,0.7,1.6,0.8c0.2,0.1,0.9,0.2,0.8-0.2
				C95.4,78.6,93.2,77.8,93.1,78.1z"/>
			<path class="st11" d="M92.5,80.7c0.1,0.1,0.3,0.2,0.5,0.1c0.1-0.1,0.1-0.3,0-0.4c-0.2-0.5-0.6-0.8-1.1-1.1
				c-0.5-0.3-0.5,0.1-0.3,0.4C91.8,80.1,92.1,80.4,92.5,80.7z"/>
			<path class="st11" d="M94.4,84.2c0.1,0,0.2-0.1,0.2-0.2c0-0.1-0.1-0.2-0.1-0.3c-0.2-0.2-2.3-1.8-1.9-0.6c0.2,0.4,1.1,0.8,1.5,1
				C94.2,84.2,94.3,84.2,94.4,84.2C94.4,84.2,94.4,84.2,94.4,84.2z"/>
			<path class="st11" d="M98.2,84.4c0.2,0.1,0.4,0,0.5-0.2c0-0.1,0-0.2,0-0.3c0,0,0,0,0,0c-0.3-0.5-1.3-0.6-1.8-0.7
				c-0.1,0-0.2,0-0.2,0c-0.1,0.1,0,0.2,0.1,0.3C96.9,83.7,97.7,84.3,98.2,84.4z"/>
			<path class="st11" d="M99.2,86c-0.1,0-0.2,0-0.3,0c-0.1,0.1-0.1,0.2,0,0.3c0.1,0.1,0.2,0.1,0.3,0.2c0.1,0,0.2,0,0.3,0.1
				c0.4,0.1,1.3,0.3,1.7,0.1c0.2-0.1,0.2,0,0.1-0.2C100.9,86,99.8,86,99.2,86z"/>
			<path class="st11" d="M103,84.6c-0.1,0.1,0,0.2,0.1,0.3c0.1,0.1,0.2,0.1,0.3,0.1c0.6,0.1,1.1,0.2,1.7,0.2c0.2,0,0.6,0,0.6-0.3
				c0-0.3-0.3-0.4-0.5-0.4c-0.4,0-0.9,0-1.3-0.1C103.7,84.5,103.2,84.4,103,84.6z"/>
			<path class="st11" d="M106.7,83.2c-0.1,0-0.2-0.1-0.2-0.2c0-0.1,0.1-0.1,0.3-0.1c0.6,0,1.2,0,1.7,0.1c0.1,0,0.3,0.1,0.3,0.2
				C108.9,83.7,106.9,83.3,106.7,83.2z"/>
		</g>
		<path class="st30" d="M101.7,73.7c2.3-0.8,1.5,1.2-0.5,1.1C99.9,74.8,100.8,74,101.7,73.7z"/>
		<g>
			<path class="st30" d="M123,55.4c2.3-0.8,1.5,1.2-0.5,1.1C121.3,56.5,122.1,55.8,123,55.4z"/>
			<path class="st30" d="M140.8,55.4c2.3-0.8,1.5,1.2-0.5,1.1C139.1,56.5,139.9,55.8,140.8,55.4z"/>
			<path class="st30" d="M141.5,88.4c2.3-0.8,1.5,1.2-0.5,1.1C139.7,89.5,140.6,88.8,141.5,88.4z"/>
			<path class="st30" d="M121.1,101.4c2.3-0.8,1.5,1.2-0.5,1.1C119.4,102.5,120.2,101.7,121.1,101.4z"/>
			<path class="st30" d="M102.5,113.1c2.3-0.8,1.5,1.2-0.5,1.1C100.7,114.2,101.5,113.5,102.5,113.1z"/>
			<path class="st30" d="M79.5,103.4c2.3-0.8,1.5,1.2-0.5,1.1C77.7,104.5,78.6,103.7,79.5,103.4z"/>
			<path class="st30" d="M87.7,91.6c2.3-0.8,1.5,1.2-0.5,1.1C85.9,92.6,86.8,91.9,87.7,91.6z"/>
			<path class="st30" d="M38.8,101.2c2.3-0.8,1.5,1.2-0.5,1.1C37,102.3,37.8,101.5,38.8,101.2z"/>
			<path class="st30" d="M114.6,108.2c7.5-2.6,4.8,3.8-1.5,3.6C108.8,111.8,111.5,109.3,114.6,108.2z"/>
			<path class="st30" d="M54.8,117.3c4.4-1.5,2.8,2.3-0.9,2.1C51.4,119.3,53,117.9,54.8,117.3z"/>
			<path class="st30" d="M123.4,94.1c4.4-1.5,2.8,2.3-0.9,2.1C120,96.2,121.6,94.8,123.4,94.1z"/>
			<path class="st30" d="M136.7,67.8c4.4-1.5,2.8,2.3-0.9,2.1C133.3,69.9,134.9,68.4,136.7,67.8z"/>
			<path class="st30" d="M129.7,54c4.4-1.5,2.8,2.3-0.9,2.1C126.2,56.1,127.8,54.7,129.7,54z"/>
			<path class="st30" d="M149,84.8c7.5-2.6,4.8,3.8-1.5,3.6C143.2,88.3,145.9,85.9,149,84.8z"/>
			<path class="st30" d="M43.6,108.2c7.5-2.6,4.8,3.8-1.5,3.6C37.7,111.8,40.5,109.3,43.6,108.2z"/>
			<path class="st30" d="M120.8,78.3c2.3-0.8,1.5,1.2-0.5,1.1C119,79.4,119.9,78.7,120.8,78.3z"/>
			<g>
				<path class="st30" d="M57.6,55.1c-1.4,0.9-0.8,4.5-0.5,5.6c0.2,0.6,0.5,1.3,1.2,1.3c0.5,0,1-0.4,1.1-0.9c0.2-0.5,0.1-1,0.1-1.5
					c-0.1-0.9,0.2-5.5-1.8-4.7C57.6,55.1,57.6,55.1,57.6,55.1z"/>
				<path class="st30" d="M69.1,39.3c0.4-0.7,0.5-2.3-0.8-1.6c-0.6,0.3-0.9,1.7-0.3,2.2C68.3,40.2,68.8,39.7,69.1,39.3z"/>
				<path class="st30" d="M55.7,32.9c0.2-0.9-1.1-1.9-1.9-1.6c-0.8,0.3-0.6,1.3-0.2,1.9c0.2,0.3,0.5,0.5,0.9,0.6
					C54.9,33.9,55.5,33.5,55.7,32.9z"/>
				<path class="st30" d="M32.4,24.6c0.3-2.2-3.5-0.9-1.8,0.6C31.1,25.8,32.3,25.4,32.4,24.6z"/>
				<path class="st30" d="M64.6,78.9c1.2-0.6-0.3-3-1.2-2C62.7,77.6,63.6,79.4,64.6,78.9z"/>
			</g>
		</g>
		<g>
			<g>
				<path class="st5" d="M125.9,88.3c1.4,0.1,2.8-0.7,3.1-1.6c0.2-0.9-0.5-1.7-1.7-2.2c-1.2-0.4-2.7-0.4-4.1-0.3
					c-1.8,0.2-3.5,0.7-5,1.5c-1.4,0.7-2.6,1.8-2.2,2.8c0.2,0.5,0.8,0.9,1.6,1c0.8,0.1,1.7,0,2.4-0.4c-0.1,0.7-0.2,1.4-0.6,2.1
					c2.3-0.2,4.8-0.5,7.1-0.9c0,0,1-0.8,0.9-0.9C127.1,88.8,125.9,88.9,125.9,88.3z"/>
				<path class="st31" d="M126.8,87.4c1.4,0.1,2.8-0.7,3.1-1.6c0.2-0.9-0.5-1.7-1.7-2.2c-1.2-0.4-2.7-0.4-4.1-0.3
					c-1.8,0.2-3.5,0.7-5,1.5c-1.4,0.7-2.6,1.8-2.2,2.8c0.2,0.5,0.8,0.9,1.6,1c0.8,0.1,1.7,0,2.4-0.4c-0.1,0.5-0.4,0.8-0.6,1.2
					c-0.1,0.2,0,0.8,0,0.8c2.3-0.2,4.8-0.5,7.1-0.9c0,0,0.1-0.6,0-0.8C127.2,88.2,126.8,87.9,126.8,87.4z"/>
				<path class="st32" d="M126.8,86.6c1.4,0.1,2.8-0.7,3.1-1.6c0.2-0.9-0.5-1.7-1.7-2.2c-1.2-0.4-2.7-0.4-4.1-0.3
					c-1.8,0.2-3.5,0.7-5,1.5c-1.4,0.7-2.6,1.8-2.2,2.8c0.2,0.5,0.8,0.9,1.6,1c0.8,0.1,1.7,0,2.4-0.4c-0.1,0.7-0.2,1.4-0.6,2.1
					c2.3-0.2,4.8-0.5,7.1-0.9C126.9,87.9,126.8,87.3,126.8,86.6z"/>
				<path class="st31" d="M128.1,85.6c0.4-0.2,0.5-0.6,0.4-0.8c-0.1-0.2-0.5-0.4-0.9-0.4c-0.4,0-0.9,0.1-1.2,0.3
					c-1,0.8-0.3,1.7,0.8,2c0.2,0,0.4,0,0.6-0.1c-0.5-0.3-0.5-0.6-0.9-1.1C127.1,85.8,127.7,85.8,128.1,85.6z"/>
				<path class="st31" d="M120.3,85.5c-0.5-0.2-1.3,0-1.7,0.4c-0.3,0.3-0.3,0.7,0,0.9c0.3,0.2,1.1,0.2,1.3-0.1
					c-0.2,0.3-0.1,0.8-0.2,1.2c0.4-0.1,0.7-0.2,1.1-0.3C121.4,86.8,121.6,86,120.3,85.5z"/>
				<path class="st33" d="M127.3,88.6c-0.4-0.6-0.5-1.1-0.6-1.8c-0.8-0.2-1.8-0.1-2.7,0c-1.1,0.1-2.2,0.4-3.2,0.7
					c-0.1,0.7-0.2,1.3-0.6,2C122.6,89.3,125,89,127.3,88.6z"/>
			</g>
			<path class="st34" d="M126.7,82.8c0.5,0,1.1,0.1,1.5,0.3c0.4,0.2,0.8,0.6,0.9,1.1s0,1-0.4,1.3c0.2-0.3,0.3-0.7,0.2-1.1
				c-0.1-0.3-0.4-0.6-0.6-0.7c-0.3-0.2-0.6-0.3-0.9-0.3c-0.6-0.1-1.5-0.1-1.8,0.4c-0.1,0.2-0.2,0.4-0.3,0.5
				c-0.3,0.3-0.7,0.5-1.2,0.5c-0.5,0.1-1,0.1-1.5,0.1c-0.3,0-0.6,0-0.9,0c-0.3,0-0.5-0.1-0.7-0.2c-0.2-0.1-0.4-0.1-0.5-0.3
				c-0.1-0.1-0.2-0.3-0.2-0.5c0-0.3,0.4-0.4,0.7-0.5c0.4-0.1,0.8-0.2,1.1-0.3C123.5,82.8,125.1,82.7,126.7,82.8z"/>
		</g>
		<g>
			<g>
				<path class="st5" d="M57,99.8c1.4-0.1,2.7-1.1,2.8-2c0.1-0.9-0.8-1.7-2-1.9c-1.2-0.3-2.7-0.1-4.1,0.3c-1.7,0.4-3.4,1.2-4.8,2.1
					c-1.3,0.9-2.4,2.2-1.8,3.1c0.3,0.5,0.9,0.8,1.7,0.8c0.8,0,1.7-0.2,2.3-0.7c0,0.7,0,1.4-0.3,2.1c2.3-0.5,4.7-1.1,6.9-1.8
					c0,0,0.8-0.9,0.8-1C58.3,100.2,57.1,100.4,57,99.8z"/>
				<path class="st31" d="M57.8,98.8c1.4-0.1,2.7-1.1,2.8-2c0.1-0.9-0.8-1.7-2-1.9c-1.2-0.3-2.7-0.1-4.1,0.3
					c-1.7,0.4-3.4,1.2-4.8,2.1c-1.3,0.9-2.4,2.2-1.8,3.1c0.3,0.5,0.9,0.8,1.7,0.8c0.8,0,1.7-0.2,2.3-0.7c0,0.5-0.3,0.8-0.4,1.3
					c0,0.2,0.1,0.8,0.1,0.8c2.3-0.5,4.7-1.1,6.9-1.8c0,0,0-0.6-0.1-0.8C58.3,99.5,57.9,99.3,57.8,98.8z"/>
				<path class="st32" d="M57.7,98c1.4-0.1,2.7-1.1,2.8-2c0.1-0.9-0.8-1.7-2-1.9c-1.2-0.3-2.7-0.1-4.1,0.3c-1.7,0.4-3.4,1.2-4.8,2.1
					c-1.3,0.9-2.4,2.2-1.8,3.1c0.3,0.5,0.9,0.8,1.7,0.8c0.8,0,1.7-0.2,2.3-0.7c0,0.7,0,1.4-0.3,2.1c2.3-0.5,4.7-1.1,6.9-1.8
					C58,99.3,57.8,98.7,57.7,98z"/>
				<path class="st31" d="M58.9,96.9c0.4-0.2,0.4-0.6,0.3-0.9c-0.2-0.2-0.6-0.3-1-0.3c-0.4,0-0.9,0.2-1.1,0.5
					c-0.9,0.9-0.1,1.7,1.1,1.9c0.2,0,0.4-0.1,0.6-0.2c-0.6-0.2-0.6-0.6-1.1-0.9C57.9,97.2,58.5,97.1,58.9,96.9z"/>
				<path class="st31" d="M51.2,97.8c-0.5-0.1-1.3,0.2-1.6,0.6c-0.2,0.3-0.2,0.7,0.1,0.9c0.4,0.2,1.1,0,1.3-0.3
					c-0.2,0.3,0,0.8-0.1,1.2c0.4-0.1,0.7-0.3,1-0.5C52.4,98.9,52.5,98.1,51.2,97.8z"/>
				<path class="st33" d="M58.5,99.9c-0.5-0.6-0.7-1-0.8-1.7c-0.9,0-1.8,0.1-2.7,0.3C54,98.8,53,99.3,52,99.7c0,0.7-0.1,1.3-0.3,2
					C53.9,101.2,56.3,100.6,58.5,99.9z"/>
			</g>
			<path class="st34" d="M57.1,94.2c0.5,0,1.1-0.1,1.6,0.1c0.5,0.2,0.9,0.5,1.1,0.9c0.2,0.4,0.1,1-0.2,1.3c0.2-0.3,0.2-0.8,0-1.1
				c-0.2-0.3-0.4-0.5-0.7-0.7c-0.3-0.1-0.6-0.2-1-0.2c-0.6,0-1.5,0.1-1.7,0.7c-0.1,0.2-0.1,0.4-0.2,0.6c-0.2,0.4-0.7,0.6-1.1,0.7
				c-0.5,0.1-0.9,0.3-1.4,0.3c-0.3,0.1-0.6,0.1-0.9,0.1c-0.3,0-0.5,0-0.8-0.1c-0.2,0-0.4-0.1-0.5-0.2c-0.2-0.1-0.3-0.3-0.3-0.5
				c0-0.3,0.3-0.4,0.6-0.5c0.4-0.2,0.7-0.3,1.1-0.4C54,94.7,55.6,94.4,57.1,94.2z"/>
		</g>
		<g>
			<g>
				<path class="st5" d="M82.7,112.1c1.3-0.4,2.4-1.6,2.3-2.6c-0.1-0.9-1.1-1.5-2.3-1.5c-1.2,0-2.6,0.5-3.9,1.1
					c-1.6,0.8-3.1,1.9-4.2,3c-1.1,1.1-1.9,2.6-1.1,3.4c0.4,0.4,1.1,0.5,1.9,0.4c0.8-0.1,1.6-0.6,2.1-1.1c0.2,0.7,0.2,1.4,0.1,2.2
					c2.1-1,4.3-2.1,6.4-3.2c0,0,0.6-1.1,0.6-1.1C84,112.3,82.9,112.8,82.7,112.1z"/>
				<path class="st31" d="M83.2,111c1.3-0.4,2.4-1.6,2.3-2.6c-0.1-0.9-1.1-1.5-2.3-1.5c-1.2,0-2.6,0.5-3.9,1.1
					c-1.6,0.8-3.1,1.9-4.2,3c-1.1,1.1-1.9,2.6-1.1,3.4c0.4,0.4,1.1,0.5,1.9,0.4c0.8-0.1,1.6-0.6,2.1-1.1c0.1,0.5-0.1,0.9-0.1,1.4
					c0,0.2,0.3,0.8,0.3,0.8c2.1-1,4.3-2.1,6.4-3.2c0,0-0.1-0.6-0.3-0.8C83.9,111.6,83.4,111.5,83.2,111z"/>
				<path class="st32" d="M83,110.2c1.3-0.4,2.4-1.6,2.3-2.6c-0.1-0.9-1.1-1.5-2.3-1.5c-1.2,0-2.6,0.5-3.9,1.1
					c-1.6,0.8-3.1,1.9-4.2,3c-1.1,1.1-1.9,2.6-1.1,3.4c0.4,0.4,1.1,0.5,1.9,0.4c0.8-0.1,1.6-0.6,2.1-1.1c0.2,0.7,0.2,1.4,0.1,2.2
					c2.1-1,4.3-2.1,6.4-3.2C83.5,111.4,83.2,110.9,83,110.2z"/>
				<path class="st31" d="M83.8,108.9c0.3-0.3,0.3-0.7,0.1-0.9c-0.2-0.2-0.6-0.2-1-0.1c-0.4,0.1-0.8,0.4-1,0.7
					c-0.7,1.1,0.3,1.7,1.5,1.6c0.2-0.1,0.3-0.2,0.5-0.3c-0.6-0.1-0.7-0.4-1.2-0.7C83,109.4,83.6,109.2,83.8,108.9z"/>
				<path class="st31" d="M76.5,111.4c-0.6,0-1.2,0.5-1.5,1c-0.2,0.4-0.1,0.8,0.3,0.9c0.4,0.1,1.1-0.2,1.2-0.6
					c-0.1,0.3,0.1,0.8,0.2,1.2c0.3-0.2,0.6-0.4,0.9-0.7C78,112.3,77.9,111.4,76.5,111.4z"/>
				<path class="st33" d="M84.2,111.9c-0.6-0.4-0.9-0.9-1.1-1.5c-0.9,0.1-1.7,0.5-2.6,0.9c-1,0.5-1.9,1.1-2.8,1.8
					c0.1,0.6,0.2,1.3,0.1,2C79.9,114.2,82.1,113.1,84.2,111.9z"/>
			</g>
			<path class="st34" d="M81.6,106.7c0.5-0.2,1-0.3,1.6-0.2c0.5,0.1,1,0.3,1.2,0.7c0.3,0.4,0.3,1,0.1,1.4c0.1-0.4,0-0.8-0.2-1.1
				c-0.2-0.3-0.5-0.4-0.9-0.5c-0.3-0.1-0.7,0-1,0c-0.6,0.1-1.4,0.4-1.6,1c0,0.2,0,0.4-0.1,0.6c-0.1,0.4-0.5,0.7-0.9,0.9
				c-0.4,0.2-0.9,0.4-1.3,0.6c-0.3,0.1-0.6,0.2-0.9,0.3c-0.2,0.1-0.5,0.1-0.8,0.1c-0.2,0-0.4,0-0.6-0.1s-0.3-0.2-0.4-0.4
				c-0.1-0.3,0.3-0.5,0.5-0.6c0.3-0.2,0.6-0.5,1-0.7C78.6,107.8,80.1,107.1,81.6,106.7z"/>
		</g>
		<g>
			<g>
				<path class="st5" d="M106.9,75c1.1-0.2,2.1-1.2,2.1-2c0-0.8-0.8-1.3-1.8-1.4c-1-0.1-2.2,0.2-3.3,0.6c-1.4,0.5-2.7,1.3-3.7,2.2
					c-1,0.9-1.8,2-1.2,2.7c0.3,0.3,0.9,0.5,1.5,0.5c0.7-0.1,1.4-0.4,1.8-0.8c0.1,0.6,0.1,1.2,0,1.8c1.8-0.6,3.7-1.4,5.5-2.2
					c0,0,0.6-0.8,0.5-0.9C107.9,75.2,107,75.5,106.9,75z"/>
				<path class="st31" d="M107.4,74.1c1.1-0.2,2.1-1.2,2.1-2c0-0.8-0.8-1.3-1.8-1.4c-1-0.1-2.2,0.2-3.3,0.6
					c-1.4,0.5-2.7,1.3-3.7,2.2c-1,0.9-1.8,2-1.2,2.7c0.3,0.3,0.9,0.5,1.5,0.5c0.7-0.1,1.4-0.4,1.8-0.8c0.1,0.4-0.2,0.7-0.2,1.1
					c0,0.2,0.2,0.7,0.2,0.7c1.8-0.6,3.7-1.4,5.5-2.2c0,0-0.1-0.5-0.2-0.7C107.9,74.6,107.5,74.5,107.4,74.1z"/>
				<path class="st32" d="M107.2,73.4c1.1-0.2,2.1-1.2,2.1-2c0-0.8-0.8-1.3-1.8-1.4c-1-0.1-2.2,0.2-3.3,0.6
					c-1.4,0.5-2.7,1.3-3.7,2.2c-1,0.9-1.8,2-1.2,2.7c0.3,0.3,0.9,0.5,1.5,0.5c0.7-0.1,1.4-0.4,1.8-0.8c0.1,0.6,0.1,1.2,0,1.8
					c1.8-0.6,3.7-1.4,5.5-2.2C107.6,74.4,107.4,74,107.2,73.4z"/>
				<path class="st31" d="M108.1,72.4c0.3-0.2,0.3-0.6,0.1-0.7c-0.2-0.2-0.5-0.2-0.8-0.2c-0.3,0.1-0.7,0.3-0.9,0.5
					c-0.7,0.8,0.1,1.4,1.1,1.5c0.2-0.1,0.3-0.1,0.4-0.2c-0.5-0.1-0.5-0.4-1-0.7C107.3,72.7,107.8,72.6,108.1,72.4z"/>
				<path class="st31" d="M101.8,73.9c-0.5-0.1-1.1,0.3-1.3,0.7c-0.2,0.3-0.1,0.6,0.2,0.7c0.3,0.1,0.9-0.1,1-0.4
					c-0.1,0.3,0.1,0.7,0.1,1c0.3-0.1,0.6-0.3,0.8-0.5C103,74.7,102.9,74,101.8,73.9z"/>
				<path class="st33" d="M108.1,74.9c-0.4-0.4-0.7-0.8-0.8-1.3c-0.7,0.1-1.5,0.3-2.2,0.6c-0.9,0.3-1.6,0.8-2.4,1.3
					c0.1,0.5,0.1,1.1-0.1,1.7C104.4,76.5,106.3,75.7,108.1,74.9z"/>
			</g>
			<path class="st34" d="M106.4,70.4c0.4-0.1,0.9-0.2,1.3-0.1c0.4,0.1,0.8,0.3,1,0.7c0.2,0.3,0.2,0.8-0.1,1.1
				c0.1-0.3,0.1-0.6-0.1-0.9c-0.2-0.2-0.4-0.4-0.7-0.5s-0.6-0.1-0.8-0.1c-0.5,0-1.2,0.2-1.4,0.7c-0.1,0.2-0.1,0.3-0.1,0.5
				c-0.1,0.3-0.5,0.5-0.8,0.7c-0.4,0.2-0.8,0.3-1.2,0.4c-0.3,0.1-0.5,0.1-0.8,0.2c-0.2,0-0.4,0-0.6,0c-0.2,0-0.3,0-0.5-0.1
				c-0.1-0.1-0.3-0.2-0.3-0.4c0-0.3,0.2-0.4,0.4-0.5c0.3-0.2,0.6-0.3,0.9-0.5C103.8,71.1,105.1,70.6,106.4,70.4z"/>
		</g>
		<path class="st30" d="M41.6,15.2c1.2-0.7,2.4-1.4,3.8-1.9c1.4-0.5,2.8-0.6,4.2-0.8c3.4-0.4,6.8-0.7,10.2-1.1
			c0.6-0.1,1.2-0.1,1.7,0.3c0.2,0.2,0.4,0.5,0.5,0.7c0.7,1.4,1.5,2.7,2.2,4.1c0.4,0.8,0.8,1.6,1.3,2.3c0.6,0.8,1.3,1.6,2.1,2.3
			c2.1,2.2,4.3,4.4,6.9,6.1c2.7,1.8,6.2,3.2,7.2,6.3c-1.1-0.9-2.2-1.8-3.3-2.7c-0.4-0.3-0.9-0.7-1.4-0.8c-0.3-0.1-0.7,0-1,0
			c-2-0.2-3-2.8-4.9-3.1c-0.6-0.1-1.3,0.1-1.9,0.2c-1,0.3-2,0.6-3,0.8c-0.3,0.1-0.7,0.2-1.1,0.1c-0.3-0.1-0.6-0.5-0.5-0.8
			c-1.3-0.1-2.6-0.3-3.8-0.7c-0.2-0.1-0.5-0.2-0.7-0.3c-0.3-0.2-0.4-0.6-0.4-1c-0.1-1.2,0.3-2.5,1.2-3.4c0.5-0.5,1.2-0.9,1.5-1.5
			c0.3-0.6,0-1.6-0.7-1.7c-0.2,0-0.5,0.1-0.7,0.1c-0.5,0.1-1-0.2-1.4-0.5c-1.7-1.1-3.5-2.2-5.5-2.3c-2.6-0.1-5,1.4-7.4,2.3
			c-2,0.8-6,1.9-8.1,0.9C35.6,17.7,40.3,15.9,41.6,15.2z"/>
		<g>
			<path class="st5" d="M65.8,23.1c-1.8-0.3-3.3,0.1-3.4,0.8c-0.1,0.7,1.3,1.5,3.1,1.8c1.8,0.3,3.3-0.1,3.4-0.8
				C69,24.1,67.6,23.3,65.8,23.1z M65.5,24.9c-1-0.1-1.7-0.5-1.7-0.8c0-0.3,0.9-0.4,1.8-0.3c1,0.1,1.7,0.5,1.7,0.8
				C67.3,24.9,66.5,25,65.5,24.9z"/>
			<path class="st15" d="M66.4,23c-1.8-0.3-3.3,0.1-3.4,0.8s1.3,1.5,3.1,1.8c1.8,0.3,3.3-0.1,3.4-0.8C69.5,24,68.2,23.2,66.4,23z
				 M66.1,24.8c-1-0.1-1.7-0.5-1.7-0.8c0-0.3,0.9-0.4,1.8-0.3c1,0.1,1.7,0.5,1.7,0.8C67.9,24.8,67,24.9,66.1,24.8z"/>
			<path class="st16" d="M66.4,22.5c-1.8-0.3-3.3,0.1-3.4,0.8c-0.1,0.7,1.3,1.5,3.1,1.8c1.8,0.3,3.3-0.1,3.4-0.8
				C69.6,23.6,68.2,22.8,66.4,22.5z M66.2,24.3c-1-0.1-1.7-0.5-1.7-0.8c0-0.3,0.9-0.4,1.8-0.3c1,0.1,1.7,0.5,1.7,0.8
				C67.9,24.3,67.1,24.5,66.2,24.3z"/>
			<path class="st17" d="M67.2,24.8c0.6,0,1.1-0.2,1.2-0.7c0.1-0.5-0.4-0.8-0.9-1c1.1,0.3,1.7,0.8,1.7,1.1
				C69,24.5,68.3,24.8,67.2,24.8z M65,24.5c-1.1-0.3-1.7-0.8-1.7-1.1c0-0.2,0.7-0.6,1.9-0.6c-0.6,0-1.1,0.2-1.2,0.7
				C64,24,64.5,24.3,65,24.5z"/>
			<path class="st18" d="M66.3,23.2c-1.2-0.2-2.2,0-2.2,0.3c-0.1,0.4,0.9,0.8,2,0.9c1.2,0.2,2.2,0,2.2-0.3
				C68.4,23.8,67.5,23.3,66.3,23.2z M66.2,24.3c-0.9-0.1-1.6-0.5-1.6-0.7c0-0.3,0.8-0.4,1.7-0.3c0.9,0.1,1.6,0.5,1.6,0.7
				C67.8,24.3,67.1,24.4,66.2,24.3z"/>
		</g>
		<g>
			<path class="st5" d="M61.6,13.5c-1.8-0.3-3.3,0.1-3.4,0.8c-0.1,0.7,1.3,1.5,3.1,1.8c1.8,0.3,3.3-0.1,3.4-0.8
				C64.8,14.6,63.4,13.8,61.6,13.5z M61.3,15.4c-1-0.1-1.7-0.5-1.7-0.8c0-0.3,0.9-0.4,1.8-0.3c1,0.1,1.7,0.5,1.7,0.8
				C63.1,15.4,62.3,15.5,61.3,15.4z"/>
			<path class="st15" d="M62.2,13.4c-1.8-0.3-3.3,0.1-3.4,0.8C58.6,15,60,15.8,61.8,16s3.3-0.1,3.4-0.8C65.3,14.5,64,13.7,62.2,13.4
				z M61.9,15.3c-1-0.1-1.7-0.5-1.7-0.8c0-0.3,0.9-0.4,1.8-0.3c1,0.1,1.7,0.5,1.7,0.8S62.9,15.4,61.9,15.3z"/>
			<path class="st16" d="M62.2,13c-1.8-0.3-3.3,0.1-3.4,0.8c-0.1,0.7,1.3,1.5,3.1,1.8c1.8,0.3,3.3-0.1,3.4-0.8
				C65.4,14,64,13.2,62.2,13z M62,14.8c-1-0.1-1.7-0.5-1.7-0.8c0-0.3,0.9-0.4,1.8-0.3c1,0.1,1.7,0.5,1.7,0.8S62.9,14.9,62,14.8z"/>
			<path class="st17" d="M63,15.2c0.6,0,1.1-0.2,1.2-0.7c0.1-0.5-0.4-0.8-0.9-1c1.1,0.3,1.7,0.8,1.7,1.1
				C64.9,14.9,64.2,15.2,63,15.2z M60.8,14.9c-1.1-0.3-1.7-0.8-1.7-1.1c0-0.2,0.7-0.6,1.9-0.6c-0.6,0-1.1,0.2-1.2,0.7
				C59.8,14.4,60.3,14.7,60.8,14.9z"/>
			<path class="st18" d="M62.1,13.6c-1.2-0.2-2.2,0-2.2,0.3c-0.1,0.4,0.9,0.8,2,0.9c1.2,0.2,2.2,0,2.2-0.3
				C64.2,14.2,63.3,13.8,62.1,13.6z M62,14.8c-0.9-0.1-1.6-0.5-1.6-0.7c0-0.3,0.8-0.4,1.7-0.3c0.9,0.1,1.6,0.5,1.6,0.7
				C63.7,14.8,62.9,14.9,62,14.8z"/>
		</g>
		<path class="st14" d="M59.7,3.5c0.9,0.2,1.8,0.4,2.5,0.9c0.7,0.5,1.2,1.5,0.9,2.4c-6.4-1.7-13.2-1.4-19.4,0.7
			c-2.2,0.7-4.3,1.7-6.5,2.3c-0.9,0.2-7.1,1.2-5.4-1.4c0.5-0.8,3.4-1.3,4.3-1.6c1.6-0.5,3.2-1.1,4.8-1.5C47,3.5,53.4,2.5,59.7,3.5z"
			/>
	</g>
</g>
</svg>
